<?xml version="1.0" encoding="utf-8"?>
<!-- Generator: Adobe Illustrator 23.0.3, SVG Export Plug-In . SVG Version: 6.00 Build 0)  -->
<svg version="1.2" baseProfile="tiny" id="Layer_1" xmlns="http://www.w3.org/2000/svg" xmlns:xlink="http://www.w3.org/1999/xlink"
	 x="0px" y="0px" viewBox="0 0 200 200" xml:space="preserve">
<g>
	<path fill="none" d="M84.5,131.5c4-8.4,2.9-16.2,1.6-25.2C85,98.3,83.7,89.4,86,79.2c2.3-10.5,8.1-20.4,17.2-29.5
		c-15.7,6-25.3,13.7-28.7,23.3c-3.1,8.7-1.1,19.1,1,30c2.4,12.2,4.9,25.7,0.8,39.2C79.9,139,82.6,135.4,84.5,131.5z"/>
	<path fill="none" d="M121.2,82.6c-3.4-6.9-6.9-14-6.1-24.7c0.1-1.6,0.3-3.2,0.6-4.8c-10.4,8.8-16.8,18.4-19,28.5
		c-1.8,8.2-0.8,15.4,0.3,23.1c1.4,9.9,2.9,20.1-2.6,31.6c-3.5,7.3-9.1,13.6-16.7,18.7c10.5,0.5,24.4-1.3,35.1-11.4
		c13.7-12.9,16.7-33.4,13.7-47C125.4,91.1,123.4,87,121.2,82.6z"/>
	<g>
		<path fill="#010101" d="M131.1,77.7c-3.1-6.3-5.5-11.3-5-19c0.5-6.3,2.8-12.5,6.9-18.5l5.1-7.4c0.9-1.4-0.3-3.2-1.9-2.8l-8.8,1.7
			C91.2,38.7,70.5,51,64,69.3c-4.1,11.5-1.7,23.9,0.6,35.8c2.9,14.9,5.6,28.9-2.8,42.1c-1.5,2.4-3.3,4.6-5.3,6.6l-4.3,4.3
			c-1,1-0.6,2.6,0.7,3.1l5.7,1.8c0.7,0.2,9.9,3.1,22,3.1c12.2,0,27.4-2.9,39.7-14.5c17-15.9,20.7-40.3,17-57.4
			C135.9,87.5,133.4,82.3,131.1,77.7z M74.5,73c3.4-9.5,13-17.3,28.7-23.3C94.1,58.8,88.3,68.7,86,79.2c-2.3,10.2-1,19.2,0.2,27.1
			c1.3,9,2.4,16.8-1.6,25.2c-1.9,4-4.7,7.5-8.3,10.7c4.2-13.4,1.6-26.9-0.8-39.2C73.4,92.1,71.4,81.7,74.5,73z M112.9,143.6
			c-10.7,10.1-24.6,11.9-35.1,11.4c7.6-5.1,13.2-11.4,16.7-18.7c5.5-11.5,4-21.7,2.6-31.6C96,97,94.9,89.8,96.8,81.6
			c2.3-10.1,8.7-19.7,19-28.5c-0.3,1.6-0.5,3.2-0.6,4.8c-0.8,10.8,2.7,17.9,6.1,24.7c2.2,4.4,4.2,8.5,5.4,14
			C129.6,110.2,126.6,130.7,112.9,143.6z"/>
		<path fill="#010101" d="M49.7,98.9c-2-3.1-4.3-6.1-7-8.8l2.8-4.3c0.8-1.2,0-2.8-1.4-2.8l-21.2-1.2c-1.4-0.1-2.4,1.4-1.7,2.7
			l9.6,18.9c0.6,1.3,2.4,1.4,3.2,0.2l2.5-3.9c1.4,1.6,2.8,3.4,3.9,5.2c9.6,15,7.8,25.7,4.7,32c-1.8,3.5-4.4,6.7-7.9,9.5
			c-0.8,0.6-0.9,1.7-0.3,2.5l4.4,6c0.6,0.9,1.8,1,2.7,0.3c4.8-3.8,8.5-8.3,11.1-13.4C59.4,132.9,62.1,118.3,49.7,98.9z"/>
		<path fill="#010101" d="M180.6,100.4l-13.2-16.6c-0.9-1.1-2.6-0.8-3.2,0.5l-1.7,4.3c-1.7-1.3-3.3-2.7-4.8-4.2
			c-12.4-12.8-12.8-23.6-11-30.4c1-3.8,3-7.5,5.8-11c0.6-0.8,0.5-1.9-0.2-2.5l-5.5-4.9c-0.8-0.7-2-0.6-2.7,0.2
			c-4,4.7-6.7,9.9-8.2,15.4c-2.6,9.6-2.3,24.5,13.7,41c2.6,2.7,5.5,5,8.6,7.1l-1.9,4.8c-0.5,1.3,0.6,2.7,2,2.5l21-3.1
			C180.8,103.2,181.5,101.5,180.6,100.4z"/>
	</g>
</g>
</svg>
