<?xml version="1.0" encoding="utf-8"?>
<!-- Generator: Adobe Illustrator 23.0.3, SVG Export Plug-In . SVG Version: 6.00 Build 0)  -->
<svg version="1.2" baseProfile="tiny" id="Layer_1" xmlns="http://www.w3.org/2000/svg" xmlns:xlink="http://www.w3.org/1999/xlink"
	 x="0px" y="0px" viewBox="0 0 200 200" xml:space="preserve">
<g>
	<path fill="#FFFFFF" d="M61.9,73.1c-5.2,3.5-17.3,11.8-17.6,24.2c-0.2,7.4,4,13,6.6,16.5c16.3,21.4,48,21,51.6,20.9
		c7.2-0.2,27.8-0.8,42.9-16.5c6-6.3,9.3-13,11-17.6c-1.2-5-3.8-12.6-9.9-19.8c-14.7-17.3-37.9-17.5-47.2-17.6
		C91.7,63.1,76.3,63.2,61.9,73.1z M101.4,77.7c6.4-3.1,13.8-3.9,20.7-2.3c-2.9,2.9-5.1,6.4-6.6,10.2c6.7,2.3,12.5,7,16.3,13
		c-4.1,0-8.1,0.9-11.9,2.5c3.1,6.4,3.9,13.8,2.3,20.7c-2.9-2.9-6.4-5.1-10.2-6.6c-2.3,6.7-7,12.5-13,16.3c0-4.1-0.9-8.1-2.5-11.9
		c-6.4,3.1-13.8,3.9-20.7,2.3c2.9-2.9,5.1-6.4,6.6-10.2c-6.7-2.3-12.5-7-16.3-13c4.1,0,8.1-0.9,11.9-2.5c-3.1-6.4-3.9-13.8-2.3-20.7
		c2.9,2.9,6.4,5.1,10.2,6.6c2.3-6.7,7-12.5,13-16.3C98.8,69.9,99.7,73.8,101.4,77.7z"/>
	<g>
		<path fill="#010101" d="M42.8,131.3l-4.8-2.4c-1.7-0.8-3.7-0.2-4.5,1.5l-5.9,11.7c-0.8,1.7-0.2,3.7,1.5,4.5l4.8,2.4
			c1.7,0.8,3.7,0.2,4.5-1.5l5.9-11.7C45.1,134.2,44.4,132.2,42.8,131.3z"/>
		<path fill="#010101" d="M70.8,142.7l-5.2-1.3c-1.8-0.4-3.6,0.6-4.1,2.4l-3.2,12.7c-0.4,1.8,0.6,3.6,2.4,4.1l5.2,1.3
			c1.8,0.4,3.6-0.6,4.1-2.4l3.2-12.7C73.7,145,72.6,143.2,70.8,142.7z"/>
		<path fill="#010101" d="M101.4,145.6H96c-1.8,0-3.3,1.5-3.3,3.3V162c0,1.8,1.5,3.3,3.3,3.3h5.4c1.8,0,3.3-1.5,3.3-3.3V149
			C104.7,147.1,103.2,145.6,101.4,145.6z"/>
		<path fill="#010101" d="M137.2,143.9c-0.4-1.8-2.3-2.9-4.1-2.4l-5.2,1.3c-1.8,0.4-2.9,2.3-2.4,4.1l3.2,12.7
			c0.4,1.8,2.3,2.9,4.1,2.4l5.2-1.3c1.8-0.4,2.9-2.3,2.4-4.1L137.2,143.9z"/>
		<path fill="#010101" d="M171.2,139.3l-8.1-10.2c-1.2-1.4-3.3-1.7-4.7-0.5l-4.2,3.4c-1.4,1.2-1.7,3.3-0.5,4.7l8.1,10.2
			c1.2,1.4,3.3,1.7,4.7,0.5l4.2-3.4C172.1,142.9,172.4,140.8,171.2,139.3z"/>
		<path fill="#010101" d="M33.3,98.4c0,22,33.7,40.4,61.5,41.8c31.5,1.5,68.9-18.1,69.2-40.7c0.4-22.2-35.2-42.9-65.9-42.9
			C68.6,56.7,33.3,75.9,33.3,98.4z M146.5,80.8c6.1,7.1,8.7,14.8,9.9,19.8c-1.7,4.6-4.9,11.3-11,17.6
			c-15.1,15.7-35.6,16.3-42.9,16.5c-3.7,0.1-35.3,0.6-51.6-20.9c-2.6-3.5-6.8-9-6.6-16.5c0.3-12.4,12.4-20.6,17.6-24.2
			c14.5-9.9,29.8-10,37.4-9.9C108.6,63.3,131.8,63.5,146.5,80.8z"/>
		<path fill="#010101" d="M155.7,68.7l4.8,2.4c1.7,0.8,3.7,0.2,4.5-1.5l5.9-11.7c0.8-1.7,0.2-3.7-1.5-4.5l-4.8-2.4
			c-1.7-0.8-3.7-0.2-4.5,1.5l-5.9,11.7C153.4,65.8,154.1,67.9,155.7,68.7z"/>
		<path fill="#010101" d="M126.6,54l5.2,1.3c1.8,0.4,3.6-0.6,4.1-2.4l3.2-12.7c0.4-1.8-0.6-3.6-2.4-4.1l-5.2-1.3
			c-1.8-0.4-3.6,0.6-4.1,2.4l-3.2,12.7C123.7,51.7,124.8,53.6,126.6,54z"/>
		<path fill="#010101" d="M96,50h5.4c1.8,0,3.3-1.5,3.3-3.3V33.6c0-1.8-1.5-3.3-3.3-3.3H96c-1.8,0-3.3,1.5-3.3,3.3v13.1
			C92.7,48.5,94.2,50,96,50z"/>
		<path fill="#010101" d="M61.1,53.3c0.6,1.7,2.5,2.6,4.3,2l5.1-1.8c1.7-0.6,2.6-2.5,2-4.3L68,36.9c-0.6-1.7-2.5-2.6-4.3-2l-5.1,1.8
			c-1.7,0.6-2.6,2.5-2,4.3L61.1,53.3z"/>
		<path fill="#010101" d="M39,69.3l4.2-3.4c1.4-1.2,1.7-3.3,0.5-4.7L35.6,51c-1.2-1.4-3.3-1.7-4.7-0.5l-4.2,3.4
			c-1.4,1.2-1.7,3.3-0.5,4.7l8.1,10.2C35.5,70.2,37.6,70.5,39,69.3z"/>
		<path fill="#010101" d="M85.8,82c-3.9-1.5-7.3-3.7-10.2-6.6c-1.6,6.9-0.8,14.3,2.3,20.7c-3.8,1.7-7.8,2.5-11.9,2.5
			c3.8,6,9.5,10.7,16.3,13c-1.5,3.9-3.7,7.3-6.6,10.2c6.9,1.6,14.3,0.8,20.7-2.3c1.7,3.8,2.5,7.8,2.5,11.9c6-3.8,10.7-9.5,13-16.3
			c3.9,1.5,7.3,3.7,10.2,6.6c1.6-6.9,0.8-14.3-2.3-20.7c3.8-1.7,7.8-2.5,11.9-2.5c-3.8-6-9.5-10.7-16.3-13c1.5-3.9,3.7-7.3,6.6-10.2
			c-6.9-1.6-14.3-0.8-20.7,2.3c-1.7-3.8-2.5-7.8-2.5-11.9C92.8,69.5,88.1,75.3,85.8,82z"/>
	</g>
</g>
</svg>
