<?xml version="1.0" encoding="utf-8"?>
<!-- Generator: Adobe Illustrator 23.0.3, SVG Export Plug-In . SVG Version: 6.00 Build 0)  -->
<svg version="1.2" baseProfile="tiny" id="Layer_1" xmlns="http://www.w3.org/2000/svg" xmlns:xlink="http://www.w3.org/1999/xlink"
	 x="0px" y="0px" viewBox="0 0 200 200" xml:space="preserve">
<g>
	<path fill="#FFFFFF" d="M96.7,82.4c-33.1,1.4-54,21.3-58.7,26.1c5,4.3,16.3,13,32.7,18.5c-1.9-3-3.7-7.2-3.3-12.4
		c1-12.2,13.7-18.4,14.8-18.9c-2.8,2.6-3.3,6.2-1.3,8.9c2.1,2.9,6.2,3.3,6.7,3.3c0.1-2.5,0.6-6.1,2.7-10
		c4.2-7.9,11.8-11.9,14.8-13.3c-0.9,1.5-2.4,4.2-2.7,7.8c-0.3,3.5,0.7,6.2,1.3,7.8c0.4-0.8,1.2-2.1,2.7-3.3c0.7-0.6,2.1-1.6,4-2.2
		c-0.5,1.3-1.1,3.2-1.3,5.6c-0.2,1.8-0.4,3,0,4.4c0.3,1,1.1,3.3,4,5.6c0.8-0.2,4.6-1.2,6.7-4.4c2.8-4.2,0.2-8.5,0-8.9
		c2,1.8,6.7,6.3,8.1,13.3c1.7,9.1-3.4,16.2-5.7,18.9c22.2-5.4,37-17.4,40.9-20.6C159.1,104.6,134.6,80.8,96.7,82.4z"/>
	<g>
		<path fill="#010101" d="M94.6,72.7c-16.5,0.2-30,5.5-31.2,6C45.8,85.6,35,97,29.9,103.1c-0.3,0.2-2.7,2.1-2.7,5.5
			c0,3.3,2.5,5.3,2.7,5.5c6.5,6.1,19,16.3,37.7,22c1.1,0.3,13,3.9,27,4c37.9,0.4,69.5-24.2,78.3-31.5
			C166.1,101.9,134.8,72.1,94.6,72.7z M127.9,110.2c-1.3-7-6-11.6-8.1-13.3c0.2,0.4,2.8,4.6,0,8.9c-2.1,3.2-5.9,4.2-6.7,4.4
			c-3-2.3-3.8-4.5-4-5.6c-0.4-1.4-0.2-2.7,0-4.4c0.3-2.4,0.9-4.3,1.3-5.6c-2,0.7-3.3,1.6-4,2.2c-1.5,1.2-2.3,2.5-2.7,3.3
			c-0.7-1.5-1.6-4.3-1.3-7.8c0.3-3.6,1.7-6.3,2.7-7.8C102.1,86,94.4,90,90.3,98c-2.1,3.9-2.6,7.5-2.7,10c-0.5,0-4.6-0.4-6.7-3.3
			c-2-2.7-1.5-6.3,1.3-8.9c-1.1,0.5-13.7,6.7-14.8,18.9c-0.4,5.2,1.4,9.4,3.3,12.4c-16.4-5.5-27.6-14.2-32.7-18.5
			c4.7-4.8,25.6-24.7,58.7-26.1c37.8-1.6,62.3,22.1,66.3,26.1c-3.8,3.2-18.7,15.2-40.9,20.6C124.5,126.4,129.6,119.3,127.9,110.2z"
			/>
		<path fill="#010101" d="M155.9,81.4l4.7,2.4c1.7,0.8,3.7,0.2,4.5-1.5l5.8-11.5c0.8-1.7,0.2-3.7-1.5-4.5l-4.7-2.4
			c-1.7-0.8-3.7-0.2-4.5,1.5l-5.8,11.5C153.6,78.5,154.2,80.5,155.9,81.4z"/>
		<path fill="#010101" d="M127.1,66.8l5.1,1.3c1.8,0.4,3.6-0.6,4.1-2.4l3.1-12.5c0.4-1.8-0.6-3.6-2.4-4.1l-5.1-1.3
			c-1.8-0.4-3.6,0.6-4.1,2.4l-3.1,12.5C124.2,64.6,125.3,66.4,127.1,66.8z"/>
		<path fill="#010101" d="M96.8,62.9h5.3c1.8,0,3.3-1.5,3.3-3.3V46.7c0-1.8-1.5-3.3-3.3-3.3h-5.3c-1.8,0-3.3,1.5-3.3,3.3v12.9
			C93.5,61.4,95,62.9,96.8,62.9z"/>
		<path fill="#010101" d="M62.2,66.1c0.6,1.7,2.5,2.6,4.3,2l5-1.8c1.7-0.6,2.6-2.5,2-4.3l-4.4-12.1c-0.6-1.7-2.5-2.6-4.3-2l-5,1.8
			c-1.7,0.6-2.6,2.5-2,4.3L62.2,66.1z"/>
		<path fill="#010101" d="M35.7,81.4c1.2,1.4,3.3,1.7,4.7,0.5l4.1-3.3c1.4-1.2,1.7-3.3,0.5-4.7l-8-10.1c-1.2-1.4-3.3-1.7-4.7-0.5
			l-4.1,3.3c-1.4,1.2-1.7,3.3-0.5,4.7L35.7,81.4z"/>
	</g>
</g>
</svg>
