<?xml version="1.0" encoding="utf-8"?>
<svg version="1.2" baseProfile="tiny" id="uncontained-icon"
	 xmlns="http://www.w3.org/2000/svg" xmlns:xlink="http://www.w3.org/1999/xlink" x="0px" y="0px" viewBox="0 0 200 200"
	 overflow="visible" xml:space="preserve">
<g>
	<path d="M175,73.4c0-0.5-0.1-1-0.4-1.4c0,0,0,0,0,0c-0.2-0.3-0.4-0.6-0.6-0.8c0,0,0,0,0,0c-0.4-0.3-0.9-0.6-1.4-0.7
		c0,0-43.5-9.8-43.5-9.8c5.9,4.4,10.8,10,14.2,16.5c0,0,0,0,0,0c3.8,7.2,5.8,15.4,5.6,23.7c0.1-0.2,25.2-25.2,25.3-25.4
		C174.7,74.9,175,74.2,175,73.4z"/>
	<path d="M152.9,147.2c0-0.2-7.5-28.6-7.6-28.8c-1.8,4.3-4.2,8.4-7.1,12c0,0,0,0,0,0c0.9,1.9,5.2,10.8,6,12.6l-14.6-4.1
		c-2.2,1.7-4.5,3.1-6.9,4.4l26.3,7.4C151.1,151.4,153.4,149.4,152.9,147.2z"/>
	<path d="M53.2,114.4c-1.2-0.4-13.4-4.6-14.3-4.9l11.9-2.9l0.7-0.2c-0.3-2-0.4-4.1-0.4-6.2l-12.4,3L51.9,91c0.8-4.2,2.1-8.2,3.9-12
		L53,81.6l-6.8-26.7c3.5,4.1,10.7,12.4,14.2,16.4c3.8-5.2,8.5-9.6,13.9-13c3.7-2.3,7.8-4.1,12.1-5.4l4.4-5.6L90,52.1c0,0,0,0,0,0
		c2.1-0.4,4.2-0.7,6.3-0.9h0l0.8-4.8l0.2,0.4l2.1,4.3c10.4-0.2,20.7,3.1,29,9.2l-10-33.4c-0.1-0.4-0.3-0.7-0.5-1c0,0,0,0,0,0
		c-1-1.3-3.1-1.5-4.4-0.4c0,0-13.2,11.6-13.2,11.6c-0.5-0.4-2.7-2.9-3.2-3.2c-0.8-0.5-1.9-0.5-2.8-0.2c-0.5,0.2-0.8,0.5-1.2,0.9
		c0,0-11.7,14.8-11.7,14.8l-40.8-9.2c-1.2-0.3-2.4,0.2-3.1,1.2C36.9,42,36.8,43,37,43.9c0,0,10.9,42.5,10.9,42.5L26,106.7
		c-0.1,0.1-0.2,0.2-0.3,0.3c-1.2,1.4-0.7,3.6,0.8,4.5c0,0,0,0,0,0c0.2,0.1,0.4,0.2,0.6,0.3c0,0,29.2,10,29.2,10
		C55,119.5,54,117,53.2,114.4z"/>
	<path d="M92.8,148.4l-15.2,15l3.3-18.4c-2-0.8-3.9-1.8-5.7-2.9c0,0,0,0,0,0l-2.8,15.7l-5.6-22c-3.7-3.4-6.8-7.4-9.3-11.8l12.5,49
		c0.2,0.7,0.7,1.4,1.3,1.8c1.2,0.8,2.8,0.6,3.8-0.4c0,0,25.9-25.6,25.9-25.6C98.2,149,95.4,148.8,92.8,148.4z"/>
	<path d="M122.3,133.6l-0.1,0.1c0.3-0.2,0.5-0.4,0.8-0.6l-0.4,0l-0.2-2.5l2.4-0.2l0.1,1.3l0.5-1.5l0.9,0.3c0.7-0.6,1.3-1.1,1.9-1.7
		l-2.1-0.7l0.1-0.3l0,0c0.2-0.5,0.6-1.7,0.8-2.2l0,0l0.1-0.2l2.3,0.8c-0.2,0.5-0.5,1.5-0.8,2.2c2.7-2.7,5-5.9,6.9-9.3l-0.6,0.3
		l-1.2-2.6l2.2-1l0.6,1.4c1.4-3,2.4-6.1,3-9.4l-0.6,0.6l-1.7-1.7l1.7-1.7l0.9,0.9c1.2-8-0.3-16.6-3.8-23.6l0.3,1.2l-2.5,0.6l0,0l0,0
		l-0.6-2.4l2.2-0.5c-3.4-6.2-8.3-11.5-14.3-15.2c0,0.9,0,1.4,0,2.1h-2.4c0-0.9,0-2.3,0-3.2h0.6c-3.2-1.8-6.8-3.1-10.5-4l0.2,0.4l0,0
		l0,0l-2.2,1.1l-1-2.1c-4.4-0.7-9.1-0.6-13.4,0.3l0.5,0.1l0,0h0l-0.4,2.4l-2.4-0.4l0,0h0l0.3-1.7c-17.7,4.3-31,20.3-30.9,39.3
		l2.4-0.6l0,0l0,0l0.6,2.4l-2.5,0.6l-0.4-1.6c0.2,7.1,2.2,13.7,5.6,19.5l0.7,0.3l0,0l2.4,0.8l-0.8,2.3l-0.1,0c3,4.1,6.7,7.6,11,10.3
		l0.5-2.9l2.4,0.4l-0.5,3l0,0v0l-2.2-0.4c7.1,4.5,16.2,6.8,25.1,6l1.6-1.6l1.2,1.2c3.8-0.6,7.4-1.8,10.8-3.4l0.4-1.7l2,0.5
		c0.2-0.1,0.3-0.2,0.5-0.3l-1.3-1.5l1.8-1.6L122.3,133.6z M121,112.8l-0.2-2.5l2.4-0.2l0.2,2.5l0,0l0,0
		C123.3,112.6,121.1,112.8,121,112.8L121,112.8L121,112.8z M121.2,115.3l2.4-0.2l0.2,2.5l-2.4,0.2L121.2,115.3z M121.6,120.4
		l2.4-0.2l0.2,2.5l-2.4,0.2L121.6,120.4z M122.2,128.1l-0.2-2.5l2.4-0.2l0.2,2.5L122.2,128.1z M123.9,96.4l-1.1-2.2l0,0l0,0l2.2-1.1
		l1.1,2.2l0,0l0,0L123.9,96.4z M127.1,103l2.2-1.1l1.1,2.2l-2.2,1.1L127.1,103z M131.2,121.4l-0.9,2.5l-2.3-0.8l0.1-0.2l0.9-2.4
		l2.3,0.8L131.2,121.4L131.2,121.4z M132.8,116.9l-0.7,2l-2.3-0.8l0-0.1l0,0c0.1-0.3,0.7-2.1,0.8-2.4l0,0l0,0l2.3,0.8L132.8,116.9z
		 M135.9,107.9l1.7,1.7l-1.4,1.4l-1.7-1.7L135.9,107.9z M134.6,112.7l-1.8,1.8l-1.3-2.6l1.9-1.4L134.6,112.7z M130.4,109.7l-1.1-2.2
		l2.2-1.1l1.1,2.2L130.4,109.7z M130.9,82.1L130.9,82.1L130.9,82.1l0.6,2.4l-2.5,0.6l0,0l0,0l-0.6-2.4L130.9,82.1z M128.2,99.7
		l-2.2,1.1l-1.1-2.2l2.2-1.1L128.2,99.7z M125.9,83.3L125.9,83.3L125.9,83.3l0.6,2.4l-2.5,0.6l0,0l0,0l-0.6-2.4L125.9,83.3z
		 M118.9,70.3v-0.6h2.4c0,0.7,0,2.3,0,3h-2.4C118.9,72.3,118.9,70.6,118.9,70.3z M118.9,75.1v-0.4h2.4c0,0.5,0,2.3,0,2.8h-2.4
		C118.9,77.4,118.9,75.3,118.9,75.1z M117.5,78L117.5,78L117.5,78l-2.2,1.1l-1-2.1l2.2-1.1L117.5,78z M114.4,88.7l-0.6-2.4l2.4-0.6
		l0.6,2.4L114.4,88.7z M116.1,126.6l-1.8,1.6l-1.6-1.8l1.8-1.6L116.1,126.6z M115.4,73.7L115.4,73.7L115.4,73.7l-2.2,1.1l-1-2.1l0,0
		l0,0l2.2-1.1L115.4,73.7z M113.3,69.5L113.3,69.5L113.3,69.5l-2.2,1.1l-1-2.1l0,0l0,0l2.2-1.1L113.3,69.5z M112,89.4l-2.4,0.6l0,0
		l0,0l-0.6-2.4l2.4-0.6l0,0l0,0L112,89.4z M108,64.3l2.2-1.1l1,2.1l-2.2,1.1L108,64.3L108,64.3L108,64.3z M106.5,88.3l0.6,2.4
		l-2.4,0.6l-0.6-2.4L106.5,88.3z M106.8,116l-1.8,1.6l-1.6-1.8l1.8-1.6L106.8,116z M101.7,89.6L101.7,89.6L101.7,89.6l0.6,2.4
		l-2.4,0.6l0,0l0,0l-0.6-2.4L101.7,89.6z M96.9,90.9L96.9,90.9L96.9,90.9l0.6,2.4l-2.4,0.6l0,0l0,0l-0.6-2.4L96.9,90.9z M97.4,105.5
		l-1.8,1.6l0,0l0,0l-1.6-1.8l1.8-1.6l0,0l0,0L97.4,105.5z M89.5,67.2l0.4-2.4l2.4,0.4l0,0h0l-0.4,2.4L89.5,67.2L89.5,67.2L89.5,67.2
		z M92.7,94.5l-2.4,0.6l0,0l0,0l-0.6-2.4l2.4-0.6l0,0l0,0L92.7,94.5z M88.7,72l0.4-2.4l2.4,0.4l0,0h0l-0.4,2.4L88.7,72L88.7,72
		L88.7,72z M88.4,74.4L88.4,74.4L88.4,74.4l2.4,0.4l-0.4,2.4l0,0l0,0L88,76.8L88.4,74.4z M87.2,81.6l0.4-2.4l2.4,0.4l0,0h0l-0.4,2.4
		L87.2,81.6L87.2,81.6L87.2,81.6z M86.5,86.3l0.4-2.4l2.4,0.4l0,0h0l-0.4,2.4L86.5,86.3L86.5,86.3L86.5,86.3z M85.7,91.1l0.4-2.4
		l2.4,0.4l0,0h0l-0.4,2.4L85.7,91.1L85.7,91.1L85.7,91.1z M84.7,91.4l-1.8,1.7l-1.7-1.8l0,0l0,0l1.8-1.7L84.7,91.4z M86.2,103.2
		l-0.4,2.3l-2.4-0.4l0.4-2.3L86.2,103.2z M84.2,100.5l0.4-2.3l2.4,0.4l-0.4,2.3L84.2,100.5z M82.9,97l-2.5,0.6l0,0l0,0l-0.6-2.4
		l2.5-0.6L82.9,97L82.9,97L82.9,97z M82.2,112l2.4,0.4l-0.4,2.3l-2.4-0.4L82.2,112z M82.6,109.7l0.4-2.3l2.4,0.4l-0.4,2.3
		L82.6,109.7z M78,84.3l-1.8,1.7l-1.7-1.8l1.8-1.7L78,84.3z M73,78.9l1.7,1.8l-1.8,1.7l-1.7-1.8L73,78.9z M70.2,100.1l-0.6-2.4
		l2.5-0.6v0l0,0l0.6,2.4L70.2,100.1L70.2,100.1L70.2,100.1z M67.7,100.7l-2.5,0.6l-0.6-2.4h0l0,0l2.5-0.6L67.7,100.7L67.7,100.7
		L67.7,100.7z M67.8,77l1.8-1.7l1.7,1.8l0,0l0,0l-1.8,1.7L67.8,77z M72.2,125.4l-2.4-0.8l0,0l-0.6-0.2l0.8-2.3l2.5,0.9l0,0l0.5,0.2
		L72.2,125.4z M77,127.1c-0.4-0.1-2.3-0.8-2.7-0.9l0.8-2.3l0.3,0.1l0,0c0.4,0.1,2,0.7,2.4,0.8L77,127.1z M77.8,98.2l-2.5,0.6
		l-0.6-2.4h0l0,0l2.5-0.6L77.8,98.2L77.8,98.2L77.8,98.2z M77.9,87.7l1.8-1.7l1.7,1.8l-1.8,1.7L77.9,87.7z M81.9,128.7l-2.5-0.9
		l0.6-2.4l2.4,0.6L81.9,128.7z M82.7,123.8L82.7,123.8L82.7,123.8l-2.4-0.4l0.4-2.3l0,0v0l2.4,0.4L82.7,123.8z M83.9,117
		c-0.1,0.5-0.3,1.8-0.4,2.3l0,0l0,0c-0.6-0.1-1.8-0.3-2.4-0.4l0,0l0,0l0.4-2.3C82.1,116.6,83.3,116.9,83.9,117L83.9,117L83.9,117z
		 M86.3,130.3l-2.3-0.8c0.3-0.6,0.6-2.1,0.8-2.7l2.4,0.6L86.3,130.3z M87.2,97.6l-1.2-1.3l-1.1,0.3l0.2-1.3l-0.9-1.1l1.2-0.3
		l0.3-1.7l1.2,1.3l1.1-0.2l-0.2,1.2l1,1.1l-1.3,0.3L87.2,97.6z M89.6,96.8l1.6,1.8l-1.8,1.6l-1.6-1.8L89.6,96.8z M91,131.9l-2.3-0.8
		l0.8-3.2l2.4,0.6L91,131.9z M90.9,101.9l1.8-1.6l1.6,1.8l-1.8,1.6L90.9,101.9z M95.6,133.6l-2.3-0.8l0.9-3.7l2.4,0.6L95.6,133.6z
		 M99,107.3l1.6,1.8l-1.8,1.6l-1.6-1.8L99,107.3z M100.3,135.2l-2.3-0.8l1-4.2l2.4,0.6L100.3,135.2z M100.3,112.4l1.8-1.6l1.6,1.8
		l-1.8,1.6L100.3,112.4z M104.9,136.8l-2.3-0.8l0.5-2.3l0.6-2.4l2.4,0.6L104.9,136.8z M106.5,119.4l1.8-1.6l1.6,1.8l-1.8,1.6
		L106.5,119.4z M108.3,132.4l2.4,0.6l-0.6,2.4l-2.4-0.6L108.3,132.4z M108.8,138.6c-0.3-0.4-1-0.9-1.5-1l0.8-2.3l3,1.1L108.8,138.6z
		 M109.6,122.9l1.8-1.6l1.6,1.8l-1.8,1.6L109.6,122.9z M114.8,136.5l-2.4-0.6l0.6-2.4l2.4,0.6L114.8,136.5z M117.4,131.7l-1.6-1.8
		l1.8-1.6l1.6,1.8L117.4,131.7z M119.2,89.8l1.4-0.1l-1.1-2.3l-0.6,0.1c0-0.3-0.1-1.2-0.1-1.2l-0.5-1.1l0.5-0.1l-0.2-2.3l-1.2,0.6
		l-1-2.1l0,0l0,0l2-1l0.5,0.5c0-0.1,0-0.9,0-1h2.4c0,0.1,0,2.5,0,2.6h-1.6l1.1,2.2l0.4-0.1l0.1,1.3l0.5,1.1l-0.5,0.1l-0.1,2.6
		l1.5-0.7l1.1,2.2l-2.1,1l0,0.2l-2.4,0.2L119.2,89.8z M119.6,94.9l2.4-0.2l0.2,2.5l-2.4,0.2L119.6,94.9z M120,100L120,100L120,100
		l2.4-0.2l0.2,2.6l-2.4,0.2L120,100z M120.4,105.1l2.4-0.2l0.2,2.5l-2.4,0.2L120.4,105.1z"/>
	<path d="M59.4,82.2L59.4,82.2c-0.8-0.3-1.7,0-2,0.8c-0.8,2-1.5,4.1-2,6.2c-0.2,0.8,0.3,1.7,1.1,1.8h0c0.8,0.2,1.5-0.3,1.7-1.1
		c0.5-2,1.1-4,1.9-5.9C60.5,83.4,60.1,82.5,59.4,82.2z"/>
	<path d="M69.1,66.7c-0.4,0-0.8,0.1-1,0.4c-1.6,1.5-3,3.1-4.3,4.9c-0.5,0.7-0.4,1.6,0.3,2.1l0,0c0.6,0.5,1.5,0.4,2-0.3
		c1.3-1.6,2.6-3.2,4.1-4.6c0.6-0.6,0.6-1.5,0.1-2.1l0,0C69.9,66.9,69.5,66.7,69.1,66.7z"/>
	<path d="M84.7,56.8c-2.3,0.5-4.4,1.7-6.5,2.8c-0.7,0.4-1,1.3-0.6,2.1l0,0c0.4,0.7,1.3,0.9,2,0.6c1.8-1,3.7-1.8,5.6-2.5
		c0.7-0.3,1.1-1.1,0.9-1.9l0,0C85.9,57.2,85.3,56.8,84.7,56.8z"/>
	<path d="M115.4,56.8c-1.8-0.6-2.8,2.1-1,2.8c1.9,0.7,3.8,1.5,5.6,2.5c0.7,0.4,1.6,0.1,2-0.6l0,0c0.4-0.7,0.1-1.7-0.6-2.1
		C119.5,58.4,117.5,57.5,115.4,56.8z"/>
	<path d="M133.7,73.6c0.5,0.6,1.4,0.7,2,0.3h0c0.7-0.5,0.8-1.5,0.3-2.1c-1.3-1.7-2.8-3.3-4.4-4.8c-0.6-0.6-1.6-0.6-2.1,0.1l0,0
		c-0.5,0.6-0.5,1.5,0.1,2.1C131.1,70.4,132.5,71.9,133.7,73.6z"/>
	<path d="M144.4,99.9c-0.8,0-1.4,0.6-1.5,1.4c-0.1,2.1-0.3,4.3-0.6,6.4c-0.1,0.8,0.4,1.5,1.2,1.7l0,0c0.8,0.2,1.6-0.4,1.8-1.2
		c0.4-2.2,0.6-4.5,0.7-6.7C145.9,100.6,145.2,99.9,144.4,99.9L144.4,99.9z"/>
	<path d="M142.4,82.7c-0.3-0.8-1.2-1.1-2-0.8l0,0c-0.7,0.3-1.1,1.2-0.8,1.9c0.8,1.9,1.4,3.9,1.9,5.9c0.2,0.8,1,1.2,1.7,1.1
		c0.8-0.2,1.3-1,1.1-1.8C143.9,86.8,143.3,84.7,142.4,82.7z"/>
	<path d="M140.5,118.3c-0.7-0.3-1.6,0-1.9,0.7c-0.9,1.9-1.9,3.6-3.1,5.3c-0.4,0.7-0.3,1.6,0.4,2l0,0c0.7,0.5,1.6,0.3,2.1-0.4
		c1.2-1.8,2.3-3.7,3.3-5.7C141.6,119.6,141.3,118.7,140.5,118.3L140.5,118.3z"/>
	<path d="M124.3,139.3c1.8-1.2,3.6-2.4,5.3-3.8c0.6-0.5,0.7-1.5,0.2-2.1l0,0c-0.5-0.6-1.4-0.7-2-0.1c-1.6,1.3-3.2,2.5-5,3.6
		c-0.7,0.4-0.9,1.3-0.5,2l0,0C122.6,139.5,123.6,139.7,124.3,139.3z"/>
	<path d="M57.1,101.7c-0.1-1.9-3-1.8-3,0.1c0.1,2.2,0.3,4.4,0.7,6.5c0.1,0.8,1,1.4,1.8,1.2h0c0.8-0.2,1.3-0.9,1.1-1.7
		C57.4,105.9,57.2,103.8,57.1,101.7z"/>
	<path d="M58.8,120.4c1,2,2,3.8,3.3,5.6c0.5,0.7,1.4,0.9,2.1,0.4l0,0c0.6-0.5,0.8-1.4,0.4-2c-1.2-1.7-2.2-3.5-3.1-5.3
		c-0.3-0.7-1.2-1-1.9-0.7l0,0C58.7,118.8,58.4,119.7,58.8,120.4z"/>
	<path d="M113.8,142.6c-0.2-0.8-1.1-1.2-1.8-1c-2,0.6-4,1-6,1.3c-0.8,0.1-1.3,0.8-1.3,1.6l0,0c0.1,0.8,0.9,1.4,1.7,1.3
		c2.2-0.3,4.3-0.8,6.4-1.4C113.6,144.2,114,143.4,113.8,142.6L113.8,142.6z"/>
	<path d="M100,54.1c-1.6,0.2-4.8-0.7-4.8,1.8c0.1,0.8,0.7,1.3,1.5,1.3c2.1-0.2,4.2-0.2,6.4,0c0.7,0,1.4-0.6,1.5-1.3v0
		C104.5,53.6,101.5,54.3,100,54.1z"/>
	<path d="M93.7,145.8c0.8,0.1,1.6-0.5,1.7-1.3l0,0c0.1-0.8-0.5-1.5-1.3-1.6c-2-0.3-4.1-0.7-6-1.3c-0.7-0.2-1.6,0.2-1.8,1
		c-0.3,0.8,0.2,1.7,1,1.9C89.4,145.1,91.6,145.5,93.7,145.8z"/>
	<path d="M76.6,139.6c0.5,0,1-0.3,1.3-0.7l0,0c0.4-0.7,0.2-1.6-0.5-2c-1.7-1.1-3.4-2.3-5-3.6c-0.6-0.5-1.5-0.4-2,0.2l0,0
		c-0.6,0.6-0.5,1.6,0.2,2.1C72.4,136.9,74.3,138.9,76.6,139.6z"/>
</g>
</svg>
