<?xml version="1.0" encoding="utf-8"?>
<!-- Generator: Adobe Illustrator 23.0.4, SVG Export Plug-In . SVG Version: 6.00 Build 0)  -->
<svg version="1.2" baseProfile="tiny" id="Layer_1" xmlns="http://www.w3.org/2000/svg" xmlns:xlink="http://www.w3.org/1999/xlink"
	 x="0px" y="0px" viewBox="0 0 200 200" xml:space="preserve">
<g>
	<path d="M133.95,65.87l-64.3-64.3L46.11,89.41l-23.54,87.84l87.84-23.54l87.84-23.54L133.95,65.87z M179.39,125.12l-36.26,9.72
		l-18.19-44.32l-13.82-33.68l15.93,15.93L179.39,125.12z M78.41,86.87l25.73-33.31l11.26,27.43l-22.42,5.37l-17.38,4.16L78.41,86.87
		z M114.17,84.63l-5.98,20.15l-5.98,20.15l-14.46-15.25L73.29,94.42l20.44-4.89L114.17,84.63z M85.39,111.91l13.77,14.53l-4.77-0.64
		l-41.71-5.63l18.2-23.56L85.39,111.91z M104.92,127.22l6.39-21.52l5.97-20.12l2.84,6.91l15.98,38.93L104.92,127.22z M74.7,20.43
		l27.34,27.34L74.29,83.69l-6.77,8.77l-0.47,0.11l0.21,0.22l-18.3,23.69l6.58-24.54L74.7,20.43z M107.89,144.28l-71.51,19.16
		l10.4-38.81l46.92,6.33l42.49,5.73L107.89,144.28z"/>
	<path d="M93.26,104.34c2.03,2.03,5.33,2.03,7.36,0c2.03-2.03,2.03-5.33,0-7.36s-5.33-2.03-7.36,0
		C91.23,99.01,91.23,102.31,93.26,104.34z M99.24,98.36c1.27,1.27,1.27,3.33,0,4.6c-1.27,1.27-3.33,1.27-4.6,0
		c-1.27-1.27-1.27-3.33,0-4.6C95.91,97.09,97.97,97.09,99.24,98.36z"/>
</g>
</svg>
