<?xml version="1.0" encoding="utf-8"?>
<!-- Generator: Adobe Illustrator 23.0.3, SVG Export Plug-In . SVG Version: 6.00 Build 0)  -->
<svg version="1.2" baseProfile="tiny" id="Layer_1" xmlns="http://www.w3.org/2000/svg" xmlns:xlink="http://www.w3.org/1999/xlink"
	 x="0px" y="0px" viewBox="0 0 200 200" xml:space="preserve">
<g>
	<path fill="none" d="M113.7,54.5c0-1.8-1.5-3.3-3.3-3.3H89c-1.8,0-3.3,1.5-3.3,3.3v23.9h28V54.5z"/>
	<path fill="#FFFFFF" d="M136.7,86.1l-3.1-0.5V47.5c0-8.9-7.3-16.2-16.2-16.2H82c-8.9,0-16.2,7.3-16.2,16.2v38.2l-3.1,0.5
		c-8.9,1.5-15.3,9.2-15.3,18.3V142c0,10.2,8.3,18.5,18.5,18.5h67.9c10.2,0,18.5-8.3,18.5-18.5v-37.6
		C152.3,95.2,145.8,87.5,136.7,86.1z M78.3,54.5c0-5.9,4.8-10.6,10.6-10.6h21.5c5.9,0,10.6,4.8,10.6,10.6v31.2H78.3V54.5z
		 M99.9,148.8c0,0-0.1,0-0.1,0c0,0-0.1,0-0.1,0c-14.2,0-25.8-11.6-25.8-25.8s11.6-25.8,25.8-25.8c0,0,0.1,0,0.1,0c0,0,0.1,0,0.1,0
		c14.2,0,25.8,11.6,25.8,25.8S114.1,148.8,99.9,148.8z"/>
	<ellipse fill="#FFFFFF" cx="99.7" cy="123" rx="17.8" ry="18"/>
	<path fill="#010101" d="M141,79.5v-32c0-13-10.6-23.6-23.6-23.6H82c-13,0-23.6,10.6-23.6,23.6v32.2C47.6,82.9,40,92.9,40,104.5V142
		c0,14.3,11.6,25.9,25.9,25.9h67.9c14.3,0,25.9-11.6,25.9-25.9v-37.6C159.7,92.6,152,82.6,141,79.5z M152.3,142
		c0,10.2-8.3,18.5-18.5,18.5H65.9c-10.2,0-18.5-8.3-18.5-18.5v-37.4c0-9.1,6.5-16.8,15.3-18.3l3.1-0.5V47.5
		c0-8.9,7.3-16.2,16.2-16.2h35.4c8.9,0,16.2,7.3,16.2,16.2v38.1l3.1,0.5c9,1.4,15.6,9,15.6,18.3V142z"/>
	<path fill="#010101" d="M121.1,54.5c0-5.9-4.8-10.6-10.6-10.6H89c-5.9,0-10.6,4.8-10.6,10.6v31.2h42.8V54.5z M85.7,54.5
		c0-1.8,1.5-3.3,3.3-3.3h21.5c1.8,0,3.3,1.5,3.3,3.3v23.9h-28V54.5z"/>
	<path fill="#FFFFFF" d="M99.9,105c0,0-0.1,0-0.1,0c9.9,0.1,17.8,8,17.8,18c0,10-8,17.9-17.8,18c0,0,0.1,0,0.1,0c9.9,0,18-8,18-18
		S109.9,105,99.9,105z"/>
	<path fill="#FFFFFF" d="M74,123c0-14.2,11.5-25.7,25.7-25.8c0,0-0.1,0-0.1,0c-14.2,0-25.8,11.6-25.8,25.8s11.6,25.8,25.8,25.8
		c0,0,0.1,0,0.1,0C85.6,148.7,74,137.1,74,123z"/>
	<path fill="#010101" d="M99.9,97.1c0,0-0.1,0-0.1,0C85.6,97.2,74,108.8,74,123c0,14.2,11.5,25.7,25.7,25.8c0,0,0.1,0,0.1,0
		c14.2,0,25.8-11.6,25.8-25.8S114.1,97.1,99.9,97.1z M117.8,123c0,10-8.1,18-18,18c0,0-0.1,0-0.1,0c-9.8-0.1-17.8-8-17.8-18
		c0-10,7.9-17.9,17.8-18c0,0,0.1,0,0.1,0C109.9,105,117.8,112.9,117.8,123z"/>
</g>
</svg>
