<?xml version="1.0" encoding="utf-8"?>
<svg version="1.2" baseProfile="tiny" id="Layer_1" xmlns="http://www.w3.org/2000/svg" xmlns:xlink="http://www.w3.org/1999/xlink"
	 x="0px" y="0px" viewBox="0 0 200 200" overflow="visible" xml:space="preserve">
<path fill="#010101" d="M165.1,54.1l-1.6-2.4c-0.9-1.4-2.5-2.3-4.2-2.3c-1,0-1.9,0.3-2.7,0.8l-24.8,16.3l0,0L95.7,37.4
	c-0.1-0.2,0-0.4,0.2-0.5c3-1.9,6.2-3.5,9.5-4.8c2.5-1,3.8-3.9,2.9-6.4l-0.9-2.6c-0.7-2-2.7-3.4-4.8-3.4c-0.7,0-1.3,0.1-1.9,0.4
	c-13.8,5.5-25.6,15-34,27.5c-8.6,12.4-13,26.9-13,41.8c0,7.7,1.2,15.1,3.3,22.1l11.3-7.5c-1.1-4.7-1.7-9.6-1.7-14.6
	c0-16.4,6.7-32.4,18.5-44l36,28.1l-51.7,34.1l-11.1,7.3L47.7,122l-2.1-3.2c-0.8-1.2-2.1-1.9-3.5-1.9c-1.6,0-3.1,0.9-3.8,2.3
	L29,137.6c-0.7,1.3-0.6,2.9,0.2,4.1c0.8,1.3,2.1,2,3.6,2c0.1,0,0.2,0,0.2,0l20.6-1.2c1.5-0.1,2.9-1,3.5-2.3c0.7-1.3,0.6-3-0.2-4.2
	l-2.1-3.2l9-5.9l10.8-7.1L127,85.2l2.6,65.9c-0.4,0-0.8,0-1.2,0c-21.7,0-40.8-11.3-51.8-28.3L65.7,130
	c13.3,20.5,36.4,34.1,62.6,34.1c10.5,0,20.7-2.1,30.2-6.4c1.3-0.6,2.3-1.6,2.7-2.9c0.5-1.3,0.4-2.7-0.2-4l-1.2-2.5
	c-0.8-1.7-2.6-2.9-4.6-2.9c-0.7,0-1.4,0.1-2,0.4c-3.2,1.4-6.6,2.6-10.1,3.4H143c-0.1,0-0.3-0.1-0.4-0.3l-4.3-71.1l0.1-0.1l25.2-16.6
	c1.1-0.7,1.9-1.9,2.2-3.2C166.1,56.6,165.8,55.3,165.1,54.1z"/>
</svg>
