<?xml version="1.0" encoding="utf-8"?>
<!-- Generator: Adobe Illustrator 23.0.6, SVG Export Plug-In . SVG Version: 6.00 Build 0)  -->
<svg version="1.1" id="Layer_1" xmlns="http://www.w3.org/2000/svg" xmlns:xlink="http://www.w3.org/1999/xlink" x="0px" y="0px"
	 viewBox="0 0 200 200" style="enable-background:new 0 0 200 200;" xml:space="preserve">
<style type="text/css">
	.st0{fill:#FFFFFF;}
	.st1{fill:#010101;}
</style>
<script  xmlns=""></script>
<g>
	<path class="st0" d="M74.8,62.3c3.8-7.9,9.6-14.7,16.8-19.7c-3.2-0.8-6.6-1.2-10-1.2c-23.2,0-41.9,18.8-41.9,41.9
		c0,2.7,0.3,5.4,0.8,7.9c0.6,3.4,1.7,6.6,3.1,9.6c3,6.6,7.7,12.2,13.5,16.4c-1.9-5.1-3-10.6-3-16.4C53.9,84.8,62.2,70.6,74.8,62.3z"
		/>
	<path class="st0" d="M119.4,41.5c-3.5,0-6.8,0.4-10,1.2c-3.1,0.8-6.1,1.9-8.9,3.3c-5.2,2.6-9.7,6.3-13.4,10.7
		c4.1-1.2,8.4-1.9,12.9-1.9c14.5,0,27.4,6.7,35.8,17.2c10.2,3.6,18.8,10.5,24.7,19.4c0.5-2.6,0.8-5.2,0.8-7.9
		C161.3,60.2,142.5,41.5,119.4,41.5z"/>
	<path class="st0" d="M126.5,138.6c-3.7,8.3-9.7,15.5-17.2,20.6c3.2,0.8,6.6,1.2,10,1.2c23.2,0,41.9-18.8,41.9-41.9
		c0-2.7-0.3-5.4-0.8-7.9c-0.6-3.4-1.7-6.6-3.1-9.6c-3.2-7-8.4-13-14.7-17.3c2.2,5.3,3.4,11.2,3.4,17.3
		C146.1,116.5,138.4,130.2,126.5,138.6z"/>
	<path class="st0" d="M63.8,129.4c-9.6-3.7-17.8-10.4-23.4-18.9c-0.5,2.6-0.8,5.2-0.8,7.9c0,23.2,18.8,41.9,41.9,41.9
		c3.5,0,6.8-0.4,10-1.2c3.1-0.8,6.1-1.9,8.9-3.3c5.3-2.7,10-6.5,13.7-11.1c-4.5,1.4-9.2,2.2-14.2,2.2
		C85.3,147,72.2,140.1,63.8,129.4z"/>
	<circle class="st0" cx="100" cy="100.9" r="24"/>
	<g>
		<path class="st1" d="M168.7,83.4c0-27.2-22.1-49.3-49.3-49.3c-6.7,0-13.1,1.3-18.9,3.8c-5.8-2.4-12.2-3.8-18.9-3.8
			c-27.2,0-49.3,22.1-49.3,49.3c0,6.2,1.1,12.1,3.2,17.5c-2.1,5.4-3.2,11.3-3.2,17.5c0,27.2,22.1,49.3,49.3,49.3
			c6.7,0,13.1-1.3,18.9-3.8c5.8,2.4,12.2,3.8,18.9,3.8c27.2,0,49.3-22.1,49.3-49.3c0-6.2-1.1-12.1-3.2-17.5
			C167.5,95.5,168.7,89.6,168.7,83.4z M81.6,41.5c3.5,0,6.8,0.4,10,1.2c-7.2,4.9-13,11.7-16.8,19.7C62.2,70.6,53.9,84.8,53.9,101
			c0,5.8,1.1,11.3,3,16.4c-5.8-4.2-10.4-9.8-13.5-16.4c-1.4-3-2.4-6.2-3.1-9.6c-0.5-2.6-0.8-5.2-0.8-7.9
			C39.6,60.2,58.4,41.5,81.6,41.5z M100,62.2c21.4,0,38.7,17.4,38.7,38.7c0,21.4-17.4,38.7-38.7,38.7s-38.7-17.4-38.7-38.7
			S78.6,62.2,100,62.2z M91.6,159.2c-3.2,0.8-6.6,1.2-10,1.2c-23.2,0-41.9-18.8-41.9-41.9c0-2.7,0.3-5.4,0.8-7.9
			c5.6,8.5,13.8,15.1,23.4,18.9C72.2,140.1,85.3,147,100,147c4.9,0,9.7-0.8,14.2-2.2c-3.7,4.6-8.4,8.4-13.7,11.1
			C97.7,157.3,94.7,158.4,91.6,159.2z M119.4,160.4c-3.5,0-6.8-0.4-10-1.2c7.5-5.1,13.5-12.2,17.2-20.6
			c11.8-8.4,19.6-22.1,19.6-37.7c0-6.1-1.2-11.9-3.4-17.3c6.4,4.3,11.5,10.3,14.7,17.3c1.4,3,2.4,6.2,3.1,9.6
			c0.5,2.6,0.8,5.2,0.8,7.9C161.3,141.6,142.5,160.4,119.4,160.4z M135.8,72c-8.5-10.5-21.4-17.2-35.8-17.2c-4.5,0-8.8,0.7-12.9,1.9
			c3.7-4.4,8.2-8.1,13.4-10.7c2.8-1.4,5.8-2.5,8.9-3.3c3.2-0.8,6.6-1.2,10-1.2c23.2,0,41.9,18.8,41.9,41.9c0,2.7-0.3,5.4-0.8,7.9
			C154.7,82.5,146,75.6,135.8,72z"/>
		<path class="st1" d="M100,132.3c17.3,0,31.4-14,31.4-31.4c0-17.3-14-31.4-31.4-31.4s-31.4,14-31.4,31.4
			C68.6,118.2,82.7,132.3,100,132.3z M100,76.9c13.2,0,24,10.8,24,24s-10.8,24-24,24s-24-10.8-24-24S86.8,76.9,100,76.9z"/>
	</g>
</g>
</svg>
