<?xml version="1.0" encoding="utf-8"?>
<!-- Generator: Adobe Illustrator 23.0.3, SVG Export Plug-In . SVG Version: 6.00 Build 0)  -->
<svg version="1.2" baseProfile="tiny" id="Layer_1" xmlns="http://www.w3.org/2000/svg" xmlns:xlink="http://www.w3.org/1999/xlink"
	 x="0px" y="0px" viewBox="0 0 200 200" xml:space="preserve">
<g>
	<path fill="none" d="M117.7,54.5c0-3.8-3-7-7-7H89.3c-3.8,0-7,3-7,7V82h35.4V54.5z"/>
	<path fill="#010101" d="M137.6,82.5v-0.3v-3V47.5c0-10.9-8.8-19.9-19.9-19.9H82.3c-11,0-19.9,8.8-19.9,19.9v31v3.8v0.3
		C52,84.4,44,93.5,44,104.5V142c0,12.3,10,22.2,22.2,22.2h67.9c12.3,0,22.2-10,22.2-22.2v-37.6C156.3,93.2,148.2,84.1,137.6,82.5z
		 M82.3,54.5c0-3.9,3.2-7,7-7h21.5c3.9,0,7,3.2,7,7V82H82.3V54.5z M99.9,148.8c-14.2,0-25.8-11.6-25.8-25.8s11.6-25.8,25.8-25.8
		c14.2,0,25.8,11.6,25.8,25.8S114.1,148.8,99.9,148.8z"/>
	<ellipse transform="matrix(0.3827 -0.9239 0.9239 0.3827 -51.9271 168.1886)" fill="#010101" cx="99.9" cy="123" rx="18" ry="18"/>
	<path fill="#FFFFFF" d="M99.9,97.1c-14.2,0-25.8,11.6-25.8,25.8s11.6,25.8,25.8,25.8c14.2,0,25.8-11.6,25.8-25.8
		S114.1,97.1,99.9,97.1z M99.9,140.9c-9.9,0-18-8-18-18s8-18,18-18c10,0,18,8,18,18S109.8,140.9,99.9,140.9z"/>
</g>
</svg>
