<?xml version="1.0" encoding="utf-8"?>
<!-- Generator: Adobe Illustrator 23.0.3, SVG Export Plug-In . SVG Version: 6.00 Build 0)  -->
<svg version="1.2" baseProfile="tiny" id="Layer_1" xmlns="http://www.w3.org/2000/svg" xmlns:xlink="http://www.w3.org/1999/xlink"
	 x="0px" y="0px" viewBox="0 0 200 200" xml:space="preserve">
<g>
	<path fill="none" d="M100,108.8c3.9,0,7.6-0.5,11.2-1.5c-1.9-7.5-5.8-14.2-11.2-19.5c-5.3,5.3-9.3,12-11.2,19.5
		C92.4,108.2,96.1,108.8,100,108.8z"/>
	<path fill="#FFFFFF" d="M100,78c8.2-6.2,18.4-9.8,29.5-9.8c4.3,0,8.4,0.5,12.3,1.6c0.1-1,0.1-2,0.1-2.9c0-23.2-18.8-41.9-41.9-41.9
		S58.1,43.7,58.1,66.8c0,1,0,2,0.1,2.9c0.2,2.5,0.6,5,1.2,7.3c3.1,12.2,11.5,22.2,22.6,27.6C84.1,96.4,88.5,89,94.3,83
		C96.1,81.2,98,79.5,100,78z"/>
	<path fill="#FFFFFF" d="M87.7,114.6c-2.5-0.6-4.9-1.5-7.2-2.5c-13.7-5.9-24.1-17.8-28.1-32.4c-14.1,6.8-23.8,21.2-23.8,37.8
		c0,23.2,18.8,41.9,41.9,41.9c8.8,0,17-2.7,23.8-7.4c2-1.4,3.9-3,5.7-4.7c7.7-7.6,12.4-18.1,12.4-29.8c0-1,0-2-0.1-2.9
		c-3.9,1-8.1,1.6-12.3,1.6S91.6,115.6,87.7,114.6z"/>
	<path fill="#FFFFFF" d="M129.5,75.6c-8.8,0-17,2.7-23.8,7.4c5.8,6,10.2,13.4,12.4,21.7c0.7,2.4,1.1,4.9,1.4,7.4
		c0.2,1.8,0.3,3.6,0.3,5.4c0,13.4-5.4,25.6-14.1,34.5c6.8,4.7,15,7.4,23.8,7.4c23.2,0,41.9-18.8,41.9-41.9
		c0-16.7-9.7-31.1-23.8-37.8c-2.2-1.1-4.5-1.9-6.9-2.6C137.1,76.1,133.4,75.6,129.5,75.6z"/>
	<path fill="#010101" d="M149,72.2c0.2-1.8,0.3-3.6,0.3-5.4c0-27.2-22.1-49.3-49.3-49.3S50.7,39.6,50.7,66.8c0,1.8,0.1,3.6,0.3,5.4
		c-17.5,7.6-29.8,25-29.8,45.3c0,27.2,22.1,49.3,49.3,49.3c11,0,21.3-3.7,29.5-9.8c8.2,6.2,18.4,9.8,29.5,9.8
		c27.2,0,49.3-22.1,49.3-49.3C178.8,97.3,166.5,79.8,149,72.2z M100,24.9c23.2,0,41.9,18.8,41.9,41.9c0,1,0,2-0.1,2.9
		c-3.9-1-8.1-1.6-12.3-1.6c-11,0-21.3,3.7-29.5,9.8c-2,1.5-3.9,3.2-5.7,5c-5.8,6-10.2,13.4-12.4,21.7c-11.1-5.3-19.5-15.4-22.6-27.6
		c-0.6-2.4-1-4.8-1.2-7.3c-0.1-1-0.1-2-0.1-2.9C58.1,43.7,76.8,24.9,100,24.9z M100,87.7c5.3,5.3,9.3,12,11.2,19.5
		c-3.6,1-7.3,1.5-11.2,1.5s-7.6-0.5-11.2-1.5C90.7,99.7,94.7,93,100,87.7z M94.3,152c-6.8,4.7-15,7.4-23.8,7.4
		c-23.2,0-41.9-18.8-41.9-41.9c0-16.7,9.7-31.1,23.8-37.8c3.9,14.6,14.4,26.5,28.1,32.4c2.3,1,4.7,1.8,7.2,2.5
		c3.9,1,8.1,1.6,12.3,1.6s8.4-0.5,12.3-1.6c0.1,1,0.1,2,0.1,2.9c0,11.7-4.8,22.2-12.4,29.8C98.3,149,96.4,150.6,94.3,152z
		 M129.5,159.4c-8.8,0-17-2.7-23.8-7.4c8.7-8.9,14.1-21.1,14.1-34.5c0-1.8-0.1-3.6-0.3-5.4c-0.3-2.5-0.8-5-1.4-7.4
		c-2.2-8.3-6.6-15.7-12.4-21.7c6.8-4.7,15-7.4,23.8-7.4c3.9,0,7.6,0.5,11.2,1.5c2.4,0.7,4.7,1.5,6.9,2.6
		c14.1,6.8,23.8,21.2,23.8,37.8C171.4,140.7,152.7,159.4,129.5,159.4z"/>
</g>
</svg>
