<?xml version="1.0" encoding="utf-8"?>
<!-- Generator: Adobe Illustrator 23.0.3, SVG Export Plug-In . SVG Version: 6.00 Build 0)  -->
<svg version="1.2" baseProfile="tiny" id="Layer_1" xmlns="http://www.w3.org/2000/svg" xmlns:xlink="http://www.w3.org/1999/xlink"
	 x="0px" y="0px" viewBox="0 0 200 200" xml:space="preserve">
<g>
	<ellipse fill="none" cx="99.7" cy="101" rx="20.3" ry="21.1"/>
	<path fill="#FFFFFF" d="M69.5,133.6c-0.8-2.7-1.3-5.5-1.6-8.4c-0.2-1.9-0.3-3.8-0.3-5.7c0-6.5,1.2-12.8,3.4-18.5
		c1.4-3.6,3.1-7,5.2-10.1c3.8-5.7,8.6-10.6,14.2-14.4c-3.4-0.8-7-1.3-10.6-1.3c-1.3,0-2.6,0.1-3.8,0.2c-2.8,0.2-5.5,0.7-8.1,1.4
		c-12.7,3.5-23,12.5-28.5,24.2c-1.5,3.2-2.6,6.6-3.3,10.1c-0.5,2.7-0.8,5.5-0.8,8.4c0,24.5,19.9,44.4,44.4,44.4
		c3.7,0,7.2-0.5,10.6-1.3C80.3,155.8,72.8,145.6,69.5,133.6z"/>
	<path fill="#FFFFFF" d="M129.9,133.6c-2.8,0.6-5.6,0.9-8.5,1c-0.6,0-1.2,0-1.8,0c-7.1,0-13.8-1.4-20-4c-3.3-1.4-6.5-3.1-9.4-5.1
		c-5.6-3.8-10.4-8.8-14.2-14.4c-0.5,2.7-0.8,5.5-0.8,8.4c0,2.4,0.2,4.8,0.6,7.1c0.4,2.7,1.1,5.4,2.1,7.9
		c3.9,10.7,11.7,19.5,21.8,24.5c3,1.5,6.1,2.7,9.4,3.5c3.4,0.8,7,1.3,10.6,1.3c24.5,0,44.4-19.9,44.4-44.4c0-2.9-0.3-5.7-0.8-8.4
		C155.7,122.5,143.8,130.8,129.9,133.6z"/>
	<path fill="#FFFFFF" d="M119.7,38c-3.7,0-7.2,0.5-10.6,1.3c10,6.8,17.5,17.1,20.8,29c0.8,2.7,1.3,5.5,1.6,8.4
		c0.2,1.9,0.3,3.8,0.3,5.7c0,6.5-1.2,12.8-3.4,18.5c-1.4,3.6-3.1,7-5.2,10.1c-3.8,5.7-8.6,10.6-14.2,14.4c3.4,0.8,7,1.3,10.6,1.3
		c1.3,0,2.6-0.1,3.8-0.2c2.8-0.2,5.5-0.7,8.1-1.4c12.7-3.5,23-12.5,28.5-24.2c1.5-3.2,2.6-6.6,3.3-10.1c0.5-2.7,0.8-5.5,0.8-8.4
		C164.1,57.9,144.2,38,119.7,38z"/>
	<path fill="#FFFFFF" d="M69.5,68.3c2.8-0.6,5.6-0.9,8.5-1c0.6,0,1.2,0,1.8,0c7.1,0,13.8,1.4,20,4c3.3,1.4,6.5,3.1,9.4,5.1
		c5.6,3.8,10.4,8.8,14.2,14.4c0.5-2.7,0.8-5.5,0.8-8.4c0-2.4-0.2-4.8-0.6-7.1c-0.4-2.7-1.1-5.4-2.1-7.9
		c-3.9-10.7-11.7-19.5-21.8-24.5c-3-1.5-6.1-2.7-9.4-3.5c-3.4-0.8-7-1.3-10.6-1.3c-24.5,0-44.4,19.9-44.4,44.4
		c0,2.9,0.3,5.7,0.8,8.4C43.7,79.4,55.6,71.1,69.5,68.3z"/>
	<path fill="#010101" d="M171.9,82.4c0-28.8-23.4-52.2-52.2-52.2c-7.1,0-13.8,1.4-20,4c-6.2-2.6-12.9-4-20-4
		c-28.8,0-52.2,23.4-52.2,52.2c0,6.5,1.2,12.8,3.4,18.5c-2.2,5.8-3.4,12-3.4,18.5c0,28.8,23.4,52.2,52.2,52.2c7.1,0,13.8-1.4,20-4
		c6.2,2.6,12.9,4,20,4c28.8,0,52.2-23.4,52.2-52.2c0-6.5-1.2-12.8-3.4-18.5C170.7,95.2,171.9,89,171.9,82.4z M79.7,38
		c3.7,0,7.2,0.5,10.6,1.3c3.3,0.8,6.4,2,9.4,3.5c10,5.1,17.9,13.9,21.8,24.5c0.9,2.5,1.6,5.2,2.1,7.9c0.4,2.3,0.6,4.7,0.6,7.1
		c0,2.9-0.3,5.7-0.8,8.4c-3.8-5.7-8.6-10.6-14.2-14.4c-2.9-2-6.1-3.7-9.4-5.1c-6.2-2.6-12.9-4-20-4c-0.6,0-1.2,0-1.8,0
		c-2.9,0.1-5.7,0.4-8.5,1c-13.9,2.8-25.8,11.1-33.3,22.5c-0.5-2.7-0.8-5.5-0.8-8.4C35.3,57.9,55.2,38,79.7,38z M120,101
		c-4.2,9.1-11.4,16.6-20.3,21.1c-8.9-4.5-16.1-12-20.3-21.1c4.2-9.1,11.4-16.6,20.3-21.1C108.6,84.4,115.8,91.9,120,101z
		 M79.7,163.9c-24.5,0-44.4-19.9-44.4-44.4c0-2.9,0.3-5.7,0.8-8.4c0.7-3.5,1.8-6.9,3.3-10.1c5.4-11.7,15.8-20.7,28.5-24.2
		c2.6-0.7,5.3-1.2,8.1-1.4c1.3-0.1,2.5-0.2,3.8-0.2c3.7,0,7.2,0.5,10.6,1.3c-5.6,3.8-10.4,8.8-14.2,14.4C74,94,72.3,97.4,70.9,101
		c-2.2,5.8-3.4,12-3.4,18.5c0,1.9,0.1,3.8,0.3,5.7c0.3,2.9,0.9,5.7,1.6,8.4c3.4,11.9,10.9,22.2,20.8,29
		C86.9,163.5,83.4,163.9,79.7,163.9z M119.7,163.9c-3.7,0-7.2-0.5-10.6-1.3c-3.3-0.8-6.4-2-9.4-3.5c-10-5.1-17.9-13.9-21.8-24.5
		c-0.9-2.5-1.6-5.2-2.1-7.9c-0.4-2.3-0.6-4.7-0.6-7.1c0-2.9,0.3-5.7,0.8-8.4c3.8,5.7,8.6,10.6,14.2,14.4c2.9,2,6.1,3.7,9.4,5.1
		c6.2,2.6,12.9,4,20,4c0.6,0,1.2,0,1.8,0c2.9-0.1,5.7-0.4,8.5-1c13.9-2.8,25.8-11.1,33.3-22.5c0.5,2.7,0.8,5.5,0.8,8.4
		C164.1,144,144.2,163.9,119.7,163.9z M163.3,90.8c-0.7,3.5-1.8,6.9-3.3,10.1c-5.4,11.7-15.8,20.7-28.5,24.2
		c-2.6,0.7-5.3,1.2-8.1,1.4c-1.3,0.1-2.5,0.2-3.8,0.2c-3.7,0-7.2-0.5-10.6-1.3c5.6-3.8,10.4-8.8,14.2-14.4c2.1-3.2,3.8-6.6,5.2-10.1
		c2.2-5.8,3.4-12,3.4-18.5c0-1.9-0.1-3.8-0.3-5.7c-0.3-2.9-0.9-5.7-1.6-8.4c-3.4-11.9-10.9-22.2-20.8-29c3.4-0.8,7-1.3,10.6-1.3
		c24.5,0,44.4,19.9,44.4,44.4C164.1,85.3,163.8,88.1,163.3,90.8z"/>
</g>
</svg>
