<?xml version="1.0" encoding="utf-8"?>
<!-- Generator: Adobe Illustrator 23.0.3, SVG Export Plug-In . SVG Version: 6.00 Build 0)  -->
<svg version="1.2" baseProfile="tiny" id="Layer_1" xmlns="http://www.w3.org/2000/svg" xmlns:xlink="http://www.w3.org/1999/xlink"
	 x="0px" y="0px" viewBox="0 0 200 200" xml:space="preserve">
<path fill="#010101" d="M154.4,147.6h-5.1v-19.3c0-13.2-5.1-21.2-12.2-26.1c-1.5,0.9-3.1,1.7-4.9,2.4c-3.2,1.3-6.5,2.2-9.8,2.9
	c1.2,0.3,2.4,0.7,3.5,1.1c5.4,2.1,8.9,5.4,10.8,10.1L69.4,116l-4.5-0.2c2-3.1,5.1-5.5,9.2-7.1c8-3.1,18.4-3.1,26.1-3.1v0
	c16.2,0,49.1-0.3,49.1-33.8V52.4h5.1c1.4,0,2.3-1.5,1.6-2.8l-10.6-18.3c-0.4-0.6-1-0.9-1.6-0.9s-1.2,0.3-1.6,0.9l-10.6,18.3
	c-0.7,1.2,0.2,2.8,1.6,2.8h5.1v9.3l-3.7-0.2l-72.8-3.1v-6.1h5.1c1.4,0,2.3-1.5,1.6-2.8L57.8,31.3c-0.7-1.2-2.5-1.2-3.2,0L44,49.7
	c-0.7,1.2,0.2,2.8,1.6,2.8h5.1v19.3c0,13.2,5.1,21.2,12.2,26.1c1.5-0.9,3.1-1.7,4.9-2.4c3.2-1.3,6.5-2.2,9.8-2.9
	c-1.2-0.3-2.4-0.7-3.5-1.1c-5.1-2-8.5-5.1-10.5-9.5l66.3,2.8l4.7,0.2c-2,2.8-4.9,4.9-8.8,6.5c-8,3.1-18.4,3.1-26.1,3.1v0
	c-16.2,0-49.1,0.3-49.1,33.8v19.3h-5.1c-1.4,0-2.3,1.5-1.6,2.8l10.6,18.3c0.4,0.6,1,0.9,1.6,0.9c0.6,0,1.2-0.3,1.6-0.9l10.6-18.3
	c0.7-1.2-0.2-2.8-1.6-2.8h-5.1V138l3.7,0.2l72.8,3.1v6.3h-5.1c-1.4,0-2.3,1.5-1.6,2.8l10.6,18.3c0.7,1.2,2.5,1.2,3.2,0l10.6-18.3
	C156.7,149.1,155.8,147.6,154.4,147.6z M134.6,69l3.7,0.2v2.6c0,2.1-0.2,4.1-0.6,5.9l-3.7-0.2l-72.1-3c-0.1-0.9-0.1-1.8-0.1-2.7
	v-5.8 M65.4,130.8l-3.7-0.2v-2.3c0-1.9,0.1-3.6,0.4-5.3l3.7,0.2l72.3,3.1c0,0.7,0.1,1.3,0.1,2v5.6L65.4,130.8z"/>
</svg>
