<?xml version="1.0" encoding="utf-8"?>
<svg version="1.2" baseProfile="tiny" id="Layer_1" xmlns="http://www.w3.org/2000/svg" xmlns:xlink="http://www.w3.org/1999/xlink"
	 x="0px" y="0px" viewBox="0 0 200 200" overflow="visible" xml:space="preserve">
<path d="M147.7,38.5l-3.5-2.7l-23.7,29l-4.8-3.8c-0.4-0.3-0.9-0.5-1.4-0.5c-1.2,0-2.1,0.8-2.3,2l-3.2,21.2c-0.1,0.7,0.1,1.3,0.5,1.8
	c0.4,0.5,1.1,0.8,1.7,0.8c0.3,0,0.6-0.1,0.8-0.2l19.9-7.8c0.8-0.3,1.3-1,1.4-1.8c0.1-0.8-0.2-1.6-0.8-2.1l-4.7-3.7l17.9-21.9
	c14.5,12.7,22.8,30.8,22.8,50.3c0,31.9-22.4,58.6-52.4,65.3c-3.2,4.1-6.9,7.7-11.1,10.7c40.4-1.8,72.7-35.2,72.7-76
	C177.5,75.1,166.6,53.1,147.7,38.5z"/>
<g>
	<path d="M57.6,76.8c8.2-15,24.2-25.2,42.5-25.2c7.6,0,14.7,1.8,21.1,4.9l6-7.3c-8.1-4.3-17.3-6.8-27.1-6.8
		c-25.4,0-47,16.5-54.7,39.4C49.3,79.7,53.3,78,57.6,76.8z"/>
	<path d="M141.9,60.4l-5.9,7.2c7.8,8.6,12.5,20,12.5,32.5c0,16.9-8.7,31.8-21.9,40.5c-0.8,4.4-2.2,8.6-4,12.6
		c20.6-8.8,35.1-29.3,35.1-53.1C157.7,84.8,151.7,70.8,141.9,60.4z"/>
</g>
<g>
	<path d="M96,106.9l6.1,5c0.2,0.2,0.5,0.2,0.8,0.2l13.3-3.3c0.5-0.1,0.8-0.7,0.6-1.2c0,0,0,0,0,0c-0.1-0.3-0.4-0.4-0.7-0.5
		l-19.4-1.7C95.7,105.3,95.3,106.4,96,106.9z"/>
	<path d="M121.4,122.1c-0.1-0.7-1-1-1.5-0.4l-16.8,19.5c-0.2,0.2-0.4,0.3-0.7,0.3c-0.2,0-0.4-0.1-0.6-0.2c-0.4-0.3-0.5-0.8-0.2-1.3
		l16.6-24.2c0.5-0.7-0.1-1.6-0.9-1.4l-19.2,3c-0.4,0.1-0.7,0.4-0.7,0.8l0,19.9c0,0.5-0.4,0.9-0.8,0.9c0,0,0,0-0.1,0
		c-0.4,0-0.8-0.3-0.9-0.8l-3.8-24.1c0-0.2-0.2-0.4-0.3-0.6l-11.3-8.1c-0.4-0.3-0.5-0.8-0.2-1.2l12.4-18.7c0.3-0.4,0.1-1.1-0.4-1.3
		c-1.1-0.5-2.3-0.9-3.4-1.3c-0.4-0.1-0.8,0-1,0.3l-16.8,23.7c-0.3,0.4-0.2,1,0.3,1.2l13.5,7.5c0.2,0.1,0.4,0.4,0.4,0.7l5.1,44
		c0.1,0.5-0.3,0.9-0.8,1c-0.1,0-0.1,0-0.2,0c-0.4,0-0.8-0.3-0.9-0.7l-9.9-39.8c-0.1-0.2-0.2-0.4-0.4-0.6l-3.8-1.9
		c-0.3-0.2-0.7-0.1-1,0.2L51,141c-0.2,0.2-0.4,0.3-0.7,0.3c-0.2,0-0.4-0.1-0.6-0.2c-0.4-0.3-0.5-0.8-0.2-1.2l15.6-24.7
		c0.3-0.4,0.1-1-0.3-1.2l-6.4-3.2c-0.2-0.1-0.4-0.3-0.5-0.6c-0.1-0.2,0-0.5,0.1-0.7l17.2-27.7c0.3-0.6,0-1.3-0.7-1.3
		c-0.7,0-1.5,0-2.2,0c-28.7,0-51.9,24.4-49.7,53.6c1.8,24.4,21.5,44,45.8,45.8c29.2,2.2,53.6-20.9,53.6-49.7
		C122.1,127.5,121.9,124.8,121.4,122.1z"/>
	<path d="M112.1,100.2c-2.9-3.8-6.2-7.1-10.1-10c-0.4-0.3-0.9-0.2-1.2,0.1l-6.5,7.8c-0.4,0.5-0.1,1.3,0.6,1.4l16.3,2
		C112,101.7,112.5,100.8,112.1,100.2z"/>
</g>
</svg>
