<?xml version="1.0" encoding="utf-8"?>
<!-- Generator: Adobe Illustrator 23.0.3, SVG Export Plug-In . SVG Version: 6.00 Build 0)  -->
<svg version="1.2" baseProfile="tiny" id="Layer_1" xmlns="http://www.w3.org/2000/svg" xmlns:xlink="http://www.w3.org/1999/xlink"
	 x="0px" y="0px" viewBox="0 0 200 200" xml:space="preserve">
<path fill="none" d="M84,128.1c-0.1-1.2,0.2-2.5,1-3.5l4.8-5.8c-17.2,2.5-32.9,11.4-43.9,25.1h40l7.3-6.9l-7.5-5.7
	C84.8,130.5,84.2,129.4,84,128.1z"/>
<path fill="none" d="M106.9,118.4l-6.4,7.8l8.4,6.5c1.1,0.8,1.7,2.1,1.8,3.4c0.1,1.4-0.5,2.7-1.5,3.6l-4.4,4.1h49.3
	C142.2,129.2,125.6,120.3,106.9,118.4z"/>
<path fill="#010101" d="M166.2,138.5c-13-17.4-31.6-28.7-52.5-32.1l-1.2,2.1c-2.6,4.5-7.3,7.2-12.5,7.2c-5.2,0-9.9-2.7-12.5-7.2
	l-1.2-2.1c-20.9,3.4-39.5,14.7-52.5,32.1c-2.6,3.5-3,8.1-1.1,12c2,3.9,5.9,6.3,10.2,6.3h114c4.4,0,8.3-2.4,10.2-6.3
	C169.2,146.6,168.8,142,166.2,138.5z M85.9,143.9h-40c11.1-13.7,26.7-22.6,43.9-25.1l-4.8,5.8c-0.8,1-1.2,2.2-1,3.5
	c0.1,1.2,0.8,2.4,1.8,3.1l7.5,5.7L85.9,143.9z M104.8,143.9l4.4-4.1c1-0.9,1.5-2.2,1.5-3.6c-0.1-1.4-0.7-2.6-1.8-3.4l-8.4-6.5
	l6.4-7.8c18.7,1.8,35.3,10.8,47.2,25.5H104.8z"/>
<path fill="#010101" d="M90.7,106.6c1.9,3.4,5.4,5.4,9.3,5.4c3.9,0,7.3-2,9.3-5.4l32.5-56.3c1.9-3.4,1.9-7.4,0-10.7
	c-1.9-3.4-5.4-5.4-9.3-5.4h-65c-3.9,0-7.3,2-9.3,5.4c-1.9,3.4-1.9,7.4,0,10.7L90.7,106.6z M94.2,86.8h11.6L100,96.9L94.2,86.8z
	 M85.8,72.3L71.3,47.1h57.5l-14.5,25.1c-0.6,1-1.7,1.6-2.9,1.6H88.6C87.5,73.9,86.4,73.3,85.8,72.3z"/>
</svg>
