<?xml version="1.0" encoding="utf-8"?>
<!-- Generator: Adobe Illustrator 23.0.3, SVG Export Plug-In . SVG Version: 6.00 Build 0)  -->
<svg version="1.2" baseProfile="tiny" id="Layer_1" xmlns="http://www.w3.org/2000/svg" xmlns:xlink="http://www.w3.org/1999/xlink"
	 x="0px" y="0px" viewBox="0 0 200 200" xml:space="preserve">
<g>
	<path fill="none" d="M153,99.5c0,0.3,0,0.6,0,0.9c0,0.2,0,0.4,0,0.7c0.1-0.2,0.1-0.5,0.2-0.7C153.1,100.1,153,99.8,153,99.5z"/>
	<path fill="#FFFFFF" d="M153,99.5c-1.2-5.9-3.3-11.4-6.2-16.4c-0.6,1-2.3,0.3-3.2,0.1c-1.5-0.3-3-0.5-4.6-0.7
		c-8-0.7-16.2,0.7-23.3,4.3c-0.9,0.4-1.7,0.9-2.6,1.4c-1,0.6-1.6,0.3-2.6,0.2c-1.9-0.2-3.9,0.3-5.6,1.2c-2.9,1.6-4.7,4.7-4.9,8
		c0-3.4,1-6.9,2.9-9.7c1-1.4,2.2-2.5,3.5-3.7c0.9-0.8,0.6-2.2-0.7-2.2c-0.8,0-1.3-0.8-1.1-1.5c0.2-0.8,1.2-1.7,1.8-2.4
		c1.4-1.5,2.9-2.8,4.5-4c3.3-2.2,7.1-3.7,11-4.2c6.6-0.8,13.4,1,18.7,5c0.6,0.5,1.3,1,1.8,1.5c-6.5-8.3-15.4-14.5-25.5-17.9
		c-0.6,0.5-1.2,0.9-1.8,1.4c-6,5-10.6,11.7-13.2,19.1c-0.3,1-0.6,2-0.9,3c-0.3,1-0.5,1.2-1.3,1.8c-1.5,1.1-2.7,2.7-3.3,4.5
		c-1.2,3.4-0.4,7.2,2,9.8c-2.2-2.2-3.8-4.9-4.6-7.9c-0.4-1.8-0.6-3.7-0.4-5.5c0.1-0.6,0.2-1.3-0.3-1.7c-0.5-0.4-1.2-0.4-1.6,0.1
		c-0.5,0.5-1.3,0.6-1.8,0c-0.6-0.7-0.5-2.3-0.5-3.1c-0.1-2.3,0.1-4.6,0.6-6.8c0.9-4.1,2.9-8,5.7-11.2c2.2-2.6,5-4.6,8-6.1
		c-1.3-0.1-2.5-0.1-3.8-0.1c-5.8,0-11.4,1-16.7,2.8c-0.1,0.7-0.2,1.4-0.3,2.1c-0.7,8,0.7,16.2,4.3,23.3c0.4,0.9,0.9,1.7,1.4,2.6
		c0.6,1,0.3,1.6,0.2,2.6c-0.2,1.9,0.3,3.9,1.2,5.6c1.6,2.9,4.7,4.7,8,4.9c-3.4,0-6.9-1-9.7-2.9c-1.4-1-2.5-2.2-3.7-3.5
		c-0.8-0.9-2.2-0.6-2.2,0.7c0,0.8-0.8,1.3-1.5,1.1c-0.8-0.2-1.7-1.2-2.4-1.8c-1.5-1.4-2.8-2.9-4-4.5c-2.2-3.3-3.7-7.1-4.2-11
		c-0.6-5,0.3-10.1,2.5-14.6c-6.6,3.9-12.3,9.2-16.8,15.4c0.5,0.3,0.9,1.1,1.2,1.6c0.6,0.9,1.3,1.9,2,2.8c1.7,2.2,3.6,4.2,5.7,6.1
		c2.6,2.3,5.4,4.3,8.5,5.9c3.1,1.6,6.3,2.7,9.7,3.7c0.8,0.2,1,0.9,1.5,1.5c0.5,0.6,1,1.1,1.6,1.5c1.3,1,2.7,1.6,4.3,1.9
		c2.9,0.5,6-0.4,8.2-2.4c-1.7,1.8-3.8,3.2-6.1,4c-2.5,0.9-5.1,1.2-7.7,0.9c-0.9-0.1-1.9,0.4-1.6,1.5c0.2,0.8,1.2,1.2,0.5,2.1
		c-0.6,0.8-2.6,0.7-3.5,0.7c-1.4,0.1-2.8,0-4.2-0.2c-2.8-0.3-5.5-1.1-8.1-2.4c-5.7-2.8-10.2-7.8-12.5-13.7c-1-2.6-1.6-5.4-1.7-8.2
		c-0.1-1.4,0-2.7,0.1-4c-3.3,5.4-5.7,11.5-6.9,18c1.3,5.8,3.6,11.3,6.6,16.2c0.7-0.7,2.2-0.1,3,0.1c1.5,0.3,3,0.5,4.6,0.7
		c8,0.7,16.2-0.7,23.3-4.3c0.9-0.4,1.7-0.9,2.6-1.4c1-0.6,1.6-0.3,2.6-0.2c1.9,0.2,3.9-0.3,5.6-1.2c2.9-1.6,4.7-4.7,4.9-8
		c0,3.4-1,6.9-2.9,9.7c-1,1.4-2.2,2.5-3.5,3.7c-0.9,0.8-0.6,2.2,0.7,2.2c0.8,0,1.3,0.8,1.1,1.5c-0.2,0.8-1.2,1.7-1.8,2.4
		c-1.4,1.5-2.9,2.8-4.5,4c-3.3,2.2-7.1,3.7-11,4.2c-6.6,0.8-13.4-1-18.7-5c0,0,0,0,0,0c6.6,7.3,15,12.8,24.4,15.7
		c0.3-0.3,0.7-0.5,1-0.8c6-5,10.6-11.7,13.2-19.1c0.3-1,0.6-2,0.9-3c0.3-1,0.5-1.2,1.3-1.8c1.5-1.1,2.7-2.7,3.3-4.5
		c1.2-3.4,0.4-7.2-2-9.8c2.2,2.2,3.8,4.9,4.6,7.9c0.4,1.8,0.6,3.7,0.4,5.5c-0.1,0.6-0.2,1.3,0.4,1.7c0.5,0.4,1.2,0.4,1.6-0.1
		c0.5-0.5,1.3-0.6,1.8,0c0.6,0.7,0.5,2.3,0.5,3.1c0.1,2.3-0.1,4.6-0.6,6.8c-0.9,4.1-2.9,8-5.7,11.2c-1.9,2.1-4.1,3.9-6.5,5.3
		c0.7,0,1.5,0,2.2,0c5.8,0,11.5-1,16.8-2.8c0-0.4,0.1-0.8,0.1-1.2c0.7-8-0.7-16.2-4.3-23.3c-0.4-0.9-0.9-1.7-1.4-2.6
		c-0.6-1-0.3-1.6-0.2-2.6c0.2-1.9-0.3-3.9-1.2-5.6c-1.6-2.9-4.7-4.7-8-4.9c3.4,0,6.9,1,9.7,2.9c1.4,1,2.5,2.2,3.7,3.5
		c0.8,0.9,2.2,0.6,2.2-0.7c0-0.8,0.8-1.3,1.5-1.1c0.8,0.2,1.7,1.2,2.4,1.8c1.5,1.4,2.8,2.9,4,4.5c2.2,3.3,3.7,7.1,4.2,11
		c0.6,4.6-0.1,9.2-2,13.4c6.2-3.7,11.6-8.6,15.9-14.5c-0.4-0.4-0.7-1-0.9-1.4c-0.6-0.9-1.3-1.9-2-2.8c-1.7-2.2-3.6-4.2-5.7-6.1
		c-2.6-2.3-5.4-4.3-8.5-5.9c-3.1-1.6-6.3-2.7-9.7-3.7c-0.8-0.2-1-0.9-1.5-1.5c-0.5-0.6-1-1.1-1.6-1.5c-1.3-1-2.7-1.6-4.3-1.9
		c-2.9-0.5-6,0.4-8.2,2.4c1.7-1.8,3.8-3.2,6.1-4c2.5-0.9,5.1-1.2,7.7-0.9c0.9,0.1,1.9-0.4,1.6-1.5c-0.2-0.8-1.2-1.2-0.5-2.1
		c0.6-0.8,2.6-0.7,3.5-0.7c1.4-0.1,2.8,0,4.2,0.2c2.8,0.3,5.5,1.1,8.1,2.4c5.7,2.8,10.2,7.8,12.5,13.7c1,2.6,1.6,5.4,1.7,8.2
		c0.1,1.2,0,2.3-0.1,3.5c3-4.8,5.3-10.1,6.6-15.9c0-0.2,0-0.4,0-0.7C153,100.1,153,99.8,153,99.5z"/>
	<g>
		<path fill="#010101" d="M98.3,38.7h3.4c1.8,0,3.3-1.5,3.3-3.3v-9.9c0-1.8-1.5-3.3-3.3-3.3h-3.4c-1.8,0-3.3,1.5-3.3,3.3v9.9
			C94.9,37.2,96.4,38.7,98.3,38.7z"/>
		<path fill="#010101" d="M101.7,161.3h-3.4c-1.8,0-3.3,1.5-3.3,3.3v9.9c0,1.8,1.5,3.3,3.3,3.3h3.4c1.8,0,3.3-1.5,3.3-3.3v-9.9
			C105.1,162.8,103.6,161.3,101.7,161.3z"/>
		<path fill="#010101" d="M174.5,94.9h-9.9c-1.8,0-3.3,1.5-3.3,3.3v3.4c0,1.8,1.5,3.3,3.3,3.3h9.9c1.8,0,3.3-1.5,3.3-3.3v-3.4
			C177.9,96.4,176.4,94.9,174.5,94.9z"/>
		<path fill="#010101" d="M38.7,101.7v-3.4c0-1.8-1.5-3.3-3.3-3.3h-9.9c-1.8,0-3.3,1.5-3.3,3.3v3.4c0,1.8,1.5,3.3,3.3,3.3h9.9
			C37.2,105.1,38.7,103.6,38.7,101.7z"/>
		<path fill="#010101" d="M149.3,142.1c-1.3-1.3-3.4-1.3-4.7,0l-2.4,2.4c-1.3,1.3-1.3,3.4,0,4.7l7,7c1.3,1.3,3.4,1.3,4.7,0l2.4-2.4
			c1.3-1.3,1.3-3.4,0-4.7L149.3,142.1z"/>
		<path fill="#010101" d="M50.7,57.9c1.3,1.3,3.4,1.3,4.7,0l2.4-2.4c1.3-1.3,1.3-3.4,0-4.7l-7-7c-1.3-1.3-3.4-1.3-4.7,0l-2.4,2.4
			c-1.3,1.3-1.3,3.4,0,4.7L50.7,57.9z"/>
		<path fill="#010101" d="M55.4,142.1c-1.3-1.3-3.4-1.3-4.7,0l-7,7c-1.3,1.3-1.3,3.4,0,4.7l2.4,2.4c1.3,1.3,3.4,1.3,4.7,0l7-7
			c1.3-1.3,1.3-3.4,0-4.7L55.4,142.1z"/>
		<path fill="#010101" d="M77.6,157.1l-3.2-1.3c-1.7-0.7-3.7,0.1-4.4,1.8l-3.9,9.1c-0.7,1.7,0.1,3.7,1.8,4.4l3.2,1.3
			c1.7,0.7,3.7-0.1,4.4-1.8l3.9-9.1C80.1,159.8,79.3,157.8,77.6,157.1z"/>
		<path fill="#010101" d="M144.6,57.9c1.3,1.3,3.4,1.3,4.7,0l7-7c1.3-1.3,1.3-3.4,0-4.7l-2.4-2.4c-1.3-1.3-3.4-1.3-4.7,0l-7,7
			c-1.3,1.3-1.3,3.4,0,4.7L144.6,57.9z"/>
		<path fill="#010101" d="M122.4,42.9l3.2,1.3c1.7,0.7,3.7-0.1,4.4-1.8l3.9-9.1c0.7-1.7-0.1-3.7-1.8-4.4l-3.2-1.3
			c-1.7-0.7-3.7,0.1-4.4,1.8l-3.9,9.1C119.9,40.2,120.7,42.2,122.4,42.9z"/>
		<path fill="#010101" d="M29.4,75.5l9.1,3.9c1.7,0.7,3.7-0.1,4.4-1.8l1.3-3.2c0.7-1.7-0.1-3.7-1.8-4.4l-9.1-3.9
			c-1.7-0.7-3.7,0.1-4.4,1.8l-1.3,3.2C26.9,72.9,27.7,74.8,29.4,75.5z"/>
		<path fill="#010101" d="M170.6,124.5l-9.1-3.9c-1.7-0.7-3.7,0.1-4.4,1.8l-1.3,3.2c-0.7,1.7,0.1,3.7,1.8,4.4l9.1,3.9
			c1.7,0.7,3.7-0.1,4.4-1.8l1.3-3.2C173.1,127.1,172.3,125.2,170.6,124.5z"/>
		<path fill="#010101" d="M71.1,42c0.7,1.7,2.6,2.5,4.4,1.8l3.2-1.3c1.7-0.7,2.5-2.6,1.8-4.4L76.8,29c-0.7-1.7-2.6-2.5-4.4-1.8
			l-3.2,1.3c-1.7,0.7-2.5,2.6-1.8,4.4L71.1,42z"/>
		<path fill="#010101" d="M128.9,158c-0.7-1.7-2.6-2.5-4.4-1.8l-3.2,1.3c-1.7,0.7-2.5,2.6-1.8,4.4l3.7,9.2c0.7,1.7,2.6,2.5,4.4,1.8
			l3.2-1.3c1.7-0.7,2.5-2.6,1.8-4.4L128.9,158z"/>
		<path fill="#010101" d="M156.2,75.4l1.3,3.2c0.7,1.7,2.6,2.5,4.4,1.8l9.2-3.7c1.7-0.7,2.5-2.6,1.8-4.4l-1.3-3.2
			c-0.7-1.7-2.6-2.5-4.4-1.8l-9.2,3.7C156.3,71.8,155.5,73.7,156.2,75.4z"/>
		<path fill="#010101" d="M43.8,124.6l-1.3-3.2c-0.7-1.7-2.6-2.5-4.4-1.8l-9.2,3.7c-1.7,0.7-2.5,2.6-1.8,4.4l1.3,3.2
			c0.7,1.7,2.6,2.5,4.4,1.8l9.2-3.7C43.7,128.2,44.5,126.3,43.8,124.6z"/>
		<path fill="#010101" d="M100.2,44.7c-30.5,0-55.3,24.8-55.3,55.3c0,30.5,24.8,55.3,55.3,55.3c30.5,0,55.3-24.8,55.3-55.3
			C155.5,69.5,130.7,44.7,100.2,44.7z M146.3,117c0.1-1.2,0.2-2.3,0.1-3.5c-0.1-2.8-0.7-5.6-1.7-8.2c-2.3-5.9-6.8-10.9-12.5-13.7
			c-2.5-1.2-5.3-2.1-8.1-2.4c-1.4-0.2-2.8-0.2-4.2-0.2c-1,0-2.9-0.1-3.5,0.7c-0.7,0.9,0.3,1.3,0.5,2.1c0.3,1.1-0.7,1.5-1.6,1.5
			c-2.6-0.2-5.2,0-7.7,0.9c-2.3,0.9-4.4,2.3-6.1,4c2.2-2,5.3-2.9,8.2-2.4c1.6,0.3,3.1,0.9,4.3,1.9c0.6,0.4,1.1,1,1.6,1.5
			c0.5,0.6,0.7,1.2,1.5,1.5c3.3,1,6.6,2,9.7,3.7c3.1,1.6,5.9,3.6,8.5,5.9c2.1,1.8,4,3.9,5.7,6.1c0.7,0.9,1.3,1.8,2,2.8
			c0.3,0.4,0.6,1,0.9,1.4c-4.3,5.8-9.7,10.8-15.9,14.5c1.8-4.2,2.5-8.9,2-13.4c-0.5-3.9-1.9-7.7-4.2-11c-1.1-1.7-2.5-3.2-4-4.5
			c-0.6-0.6-1.5-1.6-2.4-1.8c-0.8-0.2-1.5,0.3-1.5,1.1c0,1.3-1.4,1.6-2.2,0.7c-1.1-1.3-2.2-2.5-3.7-3.5c-2.8-2-6.3-2.9-9.7-2.9
			c3.3,0.2,6.4,2,8,4.9c1,1.7,1.4,3.6,1.2,5.6c-0.1,1.1-0.3,1.7,0.2,2.6c0.5,0.8,1,1.7,1.4,2.6c3.6,7.2,5.1,15.3,4.3,23.3
			c0,0.4-0.1,0.8-0.1,1.2c-5.3,1.8-11,2.8-16.8,2.8c-0.7,0-1.5,0-2.2,0c2.4-1.4,4.6-3.2,6.5-5.3c2.8-3.2,4.8-7,5.7-11.2
			c0.5-2.2,0.7-4.5,0.6-6.8c0-0.9,0.1-2.4-0.5-3.1c-0.5-0.6-1.3-0.6-1.8,0c-0.4,0.4-1.1,0.5-1.6,0.1c-0.5-0.5-0.4-1.1-0.4-1.7
			c0.2-1.8,0-3.7-0.4-5.5c-0.7-3-2.4-5.8-4.6-7.9c2.4,2.6,3.2,6.5,2,9.8c-0.6,1.8-1.8,3.4-3.3,4.5c-0.8,0.6-1,0.9-1.3,1.8
			c-0.3,1-0.6,2-0.9,3c-2.5,7.4-7.1,14.1-13.2,19.1c-0.3,0.3-0.7,0.5-1,0.8c-9.4-2.9-17.9-8.4-24.4-15.7c0,0,0,0,0,0
			c5.3,4,12.1,5.9,18.7,5c3.9-0.5,7.7-1.9,11-4.2c1.7-1.1,3.2-2.5,4.5-4c0.6-0.6,1.6-1.5,1.8-2.4c0.2-0.8-0.3-1.5-1.1-1.5
			c-1.3,0-1.6-1.4-0.7-2.2c1.3-1.1,2.5-2.2,3.5-3.7c2-2.8,2.9-6.3,2.9-9.7c-0.2,3.3-2,6.4-4.9,8c-1.7,1-3.6,1.4-5.6,1.2
			c-1.1-0.1-1.7-0.3-2.6,0.2c-0.8,0.5-1.7,1-2.6,1.4c-7.2,3.6-15.3,5.1-23.3,4.3c-1.5-0.1-3.1-0.4-4.6-0.7c-0.8-0.2-2.4-0.8-3-0.1
			c-3-4.9-5.2-10.3-6.6-16.2c1.2-6.5,3.6-12.6,6.9-18c-0.2,1.3-0.2,2.7-0.1,4c0.1,2.8,0.7,5.6,1.7,8.2c2.3,5.9,6.8,10.9,12.5,13.7
			c2.5,1.2,5.3,2.1,8.1,2.4c1.4,0.2,2.8,0.2,4.2,0.2c1,0,2.9,0.1,3.5-0.7c0.7-0.9-0.3-1.3-0.5-2.1c-0.3-1.1,0.7-1.5,1.6-1.5
			c2.6,0.2,5.2,0,7.7-0.9c2.3-0.9,4.4-2.3,6.1-4c-2.2,2-5.3,2.9-8.2,2.4c-1.6-0.3-3.1-0.9-4.3-1.9c-0.6-0.4-1.1-1-1.6-1.5
			c-0.5-0.6-0.7-1.2-1.5-1.5c-3.3-1-6.6-2-9.7-3.7c-3.1-1.6-5.9-3.6-8.5-5.9c-2.1-1.8-4-3.9-5.7-6.1c-0.7-0.9-1.3-1.8-2-2.8
			c-0.3-0.5-0.7-1.3-1.2-1.6c4.4-6.3,10.2-11.5,16.8-15.4c-2.2,4.5-3.1,9.6-2.5,14.6c0.5,3.9,1.9,7.7,4.2,11c1.1,1.7,2.5,3.2,4,4.5
			c0.6,0.6,1.5,1.6,2.4,1.8c0.8,0.2,1.5-0.3,1.5-1.1c0-1.3,1.4-1.6,2.2-0.7c1.1,1.3,2.2,2.5,3.7,3.5c2.8,2,6.3,2.9,9.7,2.9
			c-3.3-0.2-6.4-2-8-4.9c-1-1.7-1.4-3.6-1.2-5.6c0.1-1.1,0.3-1.7-0.2-2.6c-0.5-0.8-1-1.7-1.4-2.6c-3.6-7.2-5.1-15.3-4.3-23.3
			c0.1-0.7,0.2-1.4,0.3-2.1c5.3-1.8,10.9-2.8,16.7-2.8c1.3,0,2.5,0,3.8,0.1c-3,1.5-5.8,3.5-8,6.1c-2.8,3.2-4.8,7-5.7,11.2
			c-0.5,2.2-0.7,4.5-0.6,6.8c0,0.9-0.1,2.4,0.5,3.1c0.5,0.6,1.3,0.6,1.8,0c0.4-0.4,1.1-0.5,1.6-0.1c0.5,0.5,0.4,1.1,0.3,1.7
			c-0.2,1.8,0,3.7,0.4,5.5c0.7,3,2.4,5.8,4.6,7.9c-2.4-2.6-3.2-6.5-2-9.8c0.6-1.8,1.8-3.4,3.3-4.5c0.8-0.6,1-0.9,1.3-1.8
			c0.3-1,0.6-2,0.9-3c2.5-7.4,7.1-14.1,13.2-19.1c0.6-0.5,1.2-1,1.8-1.4c10.1,3.3,18.9,9.6,25.5,17.9c-0.6-0.5-1.2-1.1-1.8-1.5
			c-5.3-4-12.1-5.9-18.7-5c-3.9,0.5-7.7,1.9-11,4.2c-1.7,1.1-3.2,2.5-4.5,4c-0.6,0.6-1.6,1.5-1.8,2.4c-0.2,0.8,0.3,1.5,1.1,1.5
			c1.3,0,1.6,1.4,0.7,2.2c-1.3,1.1-2.5,2.2-3.5,3.7c-2,2.8-2.9,6.3-2.9,9.7c0.2-3.3,2-6.4,4.9-8c1.7-1,3.6-1.4,5.6-1.2
			c1.1,0.1,1.7,0.3,2.6-0.2c0.8-0.5,1.7-1,2.6-1.4c7.2-3.6,15.3-5.1,23.3-4.3c1.5,0.1,3.1,0.4,4.6,0.7c0.9,0.2,2.6,0.9,3.2-0.1
			c2.9,5,5,10.5,6.2,16.4c0.1,0.3,0.1,0.6,0.2,0.9c-0.1,0.2-0.1,0.5-0.2,0.7C151.6,106.9,149.3,112.2,146.3,117z"/>
	</g>
</g>
</svg>
