<?xml version="1.0" encoding="utf-8"?>
<!-- Generator: Adobe Illustrator 23.0.3, SVG Export Plug-In . SVG Version: 6.00 Build 0)  -->
<svg version="1.2" baseProfile="tiny" id="Layer_1" xmlns="http://www.w3.org/2000/svg" xmlns:xlink="http://www.w3.org/1999/xlink"
	 x="0px" y="0px" viewBox="0 0 200 200" xml:space="preserve">
<g>
	<path fill="none" d="M94.7,112.4h11.1c0.7,0,1.2-0.8,0.7-1.5c-1.9-2.6-3.7-5.1-5.6-7.7c-0.4-0.5-1.1-0.5-1.5,0
		c-1.9,2.6-3.7,5.1-5.6,7.7C93.5,111.6,94,112.4,94.7,112.4z"/>
	<path fill="none" d="M111.2,108.8c1.1-3.5,2.3-7.1,3.4-10.6c0.2-0.7-0.4-1.4-1.2-1.2c-3,1-6,1.9-9,2.9c-0.6,0.2-0.8,0.9-0.5,1.4
		c1.9,2.6,3.7,5.1,5.6,7.7C110,109.7,110.9,109.6,111.2,108.8z"/>
	<path fill="none" d="M32.6,94.4c1.4,2.8,3.3,5.3,5.7,7.3l0,0c0.9,0.8,3.8,3,7.8,4.4c2.1,0.7,5,1.1,8.9,1.1c0.5,0,1,0,1.5,0
		c6.1-0.1,12.1-1.2,17.9-3.1l6.9-2.3c1-0.3,1.5-1.4,1.2-2.3c-0.4-1.2-0.8-2.5-1.2-3.7c-0.4-1.2-1-2.5,0.2-3.5
		c0.7-0.6,2.8-2.1,4.4-3.2c0.8-0.6,1-1.8,0.4-2.6L82,80.5c-3.7-5.1-8.1-9.7-13.2-13.5c-3.4-2.5-6.2-4.1-8.4-4.8
		c-2.1-0.6-4.5-1.3-7.4-1.3c-3.4,0-6.9,1-10.6,3c-0.5,0.2-0.9,0.5-1.2,0.7l-0.1,0.1l-0.1,0.1l-0.1,0.1l-2.1,1.6l-0.1,0.1l-0.1,0.1
		c-3.3,2.8-5.7,6.4-7,10.5c-1.1,3.4-1.4,7.1-0.9,10.6c0.1,0.5,0.3,1.1,0.4,1.6L32.6,94.4z"/>
	<path fill="none" d="M73.1,162.2l0.2,0c0.4,0,0.9-0.1,1.4-0.1c3.2-0.4,6.2-1.5,8.9-3.2c0.4-0.2,3.7-2.3,6.5-6
		c1.2-1.6,2.4-4.2,3.6-7.5c2.1-6.3,3.1-13,3.1-19.7V118c0-1-0.8-1.8-1.8-1.8h-4.2c-1.3,0-2.4,0-2.9-1.4c-0.4-1-1.1-3.3-1.7-5
		c-0.3-1-1.4-1.5-2.3-1.2l-5.7,1.8c-5.1,1.7-10,4-14.6,6.9c-5.1,3.3-8.8,6.3-10.5,8.8c-2.5,3.6-5.7,8.2-3.9,17.5
		c0.1,0.5,0.2,1,0.3,1.4l0,0.2l0,0.1l0,0.1l0.8,2.5l0,0.1l0.1,0.1c1.6,3.9,4.3,7.3,7.7,9.9c3.5,2.5,7.5,4,11.8,4.3l0.1,0h0.1l1.9,0
		H73L73.1,162.2z"/>
	<path fill="none" d="M84.9,32.6c-0.2,0.1-0.3,0.3-0.5,0.4C82,35.3,80.2,38,79,40.9c-0.2,0.4-1.6,4.1-1.7,8.7
		c-0.1,2.6,0.8,6.5,2.5,11.2c2,5.5,4.8,10.7,8.3,15.5l4.2,5.7c0.6,0.9,1.8,1,2.7,0.3c0.9-0.6,1.7-1.2,2.6-1.9c1-0.7,2.2-2.1,3.7-1.4
		c0.8,0.4,3,2.1,4.6,3.3c0.8,0.6,2,0.5,2.6-0.4l4.1-5.7c3.5-4.8,6.3-10,8.3-15.5c1.7-4.7,2.6-8.6,2.5-11.2c-0.1-4.5-0.2-10-7.2-16.6
		c-0.2-0.2-0.3-0.3-0.5-0.4l-3.4-2.5c-0.2-0.1-0.4-0.3-0.6-0.4c-3.5-2-7.4-3-11.4-3h0c-4,0-7.9,1.1-11.4,3c-0.2,0.1-0.4,0.3-0.6,0.4
		L84.9,32.6z"/>
	<path fill="none" d="M85.9,98.3c1.1,3.5,2.3,7.1,3.4,10.6c0.2,0.7,1.2,0.9,1.6,0.3c1.9-2.6,3.7-5.1,5.6-7.7
		c0.4-0.5,0.1-1.2-0.5-1.4l-9-2.9C86.4,96.9,85.7,97.6,85.9,98.3z"/>
	<path fill="none" d="M97.4,96.5c0.6,0.2,1.2-0.2,1.2-0.9c0-3.2,0-6.3,0-9.5c0-0.7-0.8-1.2-1.4-0.7l-9,6.5c-0.6,0.4-0.5,1.4,0.3,1.6
		C91.4,94.6,94.4,95.6,97.4,96.5z"/>
	<path fill="none" d="M103.5,96.5l9-2.9c0.7-0.2,0.9-1.2,0.3-1.6c-3-2.2-6-4.4-9-6.5c-0.6-0.4-1.4,0-1.5,0.7c0,3.2,0,6.3,0,9.5
		C102.3,96.3,102.9,96.7,103.5,96.5z"/>
	<path fill="none" d="M150.6,148l2-6.2c0.2-2.4,0-4.7-0.6-7.1c-0.1-0.4-1.1-4.3-3.7-8.1c-2.4-3.5-8.9-8.2-18-13.2
		c-0.4-0.2-0.7-0.4-1.1-0.5l-13.6-4.4c-0.1,0-0.2,0-0.2,0.1c-0.3,0.8-1.4,4.3-2,6.1c-0.4,1.1-0.9,1.9-2.2,2
		c-2.3,0.1-4.6,0.1-6.9,0.1c-0.1,0-0.2,0.1-0.2,0.2v15.6c0,0.4,0,0.9,0.1,1.3c1.9,9.5,4.3,16.6,6.8,19.9c2.3,3,5.1,6.6,11.7,8.4
		l8.4,0C140,162.2,147.9,156.5,150.6,148z"/>
	<path fill="none" d="M170.5,84.3c0-2.4-0.3-4.9-1.1-7.2c-1.3-4.1-3.8-7.7-7-10.5l-0.1-0.1l-0.1-0.1l-2.1-1.6l-0.1-0.1l-0.1-0.1
		l-0.1-0.1c-0.4-0.2-0.8-0.5-1.2-0.7c-2.9-1.5-5.9-2.5-9.1-2.7c-0.1,0-0.6,0-1.3,0c-1.8,0-4.6,0.2-7.6,1.1c-2.5,0.8-6,2.9-10,6
		c-4.6,3.6-8.7,7.9-12.1,12.6l-4,5.5c-0.6,0.8-0.4,2,0.4,2.6c0.8,0.6,1.6,1.1,2.4,1.7c0.9,0.6,2.5,1.5,2.8,2.7
		c0.1,0.5-0.1,0.9-0.2,1.4c-0.5,1.6-1,3.1-1.5,4.7c-0.3,1,0.2,2,1.2,2.3l7,2.3c5.8,1.9,11.9,3,18,3.1c0.5,0,1,0,1.5,0
		c3.9,0,6.8-0.4,8.9-1.1c3.9-1.4,8.8-3.1,12.7-10.3l2.1-6.6C170.1,87.6,170.4,86,170.5,84.3z"/>
	<path fill="#010101" d="M166.5,60.4L166.5,60.4l-49.8-36.2c-9.8-7.1-22.9-7.1-32.7,0L34,60.4c-9.8,7.1-13.8,19.6-10.1,31l19,58.8
		c3.7,11.5,14.4,19.3,26.5,19.3l61.7,0c12.1,0,22.7-7.7,26.5-19.3l19-58.9C180.3,80,176.2,67.5,166.5,60.4z M169.6,89.2l-2.1,6.6
		c-4,7.2-8.8,8.9-12.7,10.3c-2.1,0.7-5,1.1-8.9,1.1c-0.5,0-1,0-1.5,0c-6.1-0.1-12.1-1.2-18-3.1l-7-2.3c-1-0.3-1.5-1.4-1.2-2.3
		c0.5-1.6,1-3.1,1.5-4.7c0.1-0.5,0.3-0.9,0.2-1.4c-0.2-1.2-1.9-2-2.8-2.7c-0.8-0.6-1.6-1.1-2.4-1.7c-0.8-0.6-1-1.8-0.4-2.6l4-5.5
		c3.4-4.7,7.5-9,12.1-12.6c4.1-3.2,7.5-5.3,10-6c3-0.9,5.8-1.1,7.6-1.1c0.7,0,1.2,0,1.3,0c3.2,0.3,6.3,1.2,9.1,2.7
		c0.5,0.2,0.8,0.5,1.2,0.7l0.1,0.1l0.1,0.1l0.1,0.1l2.1,1.6l0.1,0.1l0.1,0.1c3.3,2.8,5.7,6.4,7,10.5c0.8,2.4,1.1,4.8,1.1,7.2
		C170.4,86,170.1,87.6,169.6,89.2z M50.5,148l-0.1-0.1l0-0.1l-0.8-2.5l0-0.1l0-0.1l0-0.2c-0.1-0.4-0.2-0.9-0.3-1.4
		c-1.7-9.3,1.4-13.9,3.9-17.5c1.7-2.5,5.4-5.5,10.5-8.8c4.5-2.9,9.4-5.2,14.6-6.9l5.7-1.8c1-0.3,2,0.2,2.3,1.2c0.5,1.7,1.3,4,1.7,5
		c0.6,1.4,1.7,1.4,2.9,1.4h4.2c1,0,1.8,0.8,1.8,1.8v7.7c0,6.7-1,13.4-3.1,19.7c-1.1,3.3-2.3,5.9-3.6,7.5c-2.8,3.7-6.1,5.8-6.5,6
		c-2.7,1.7-5.7,2.7-8.9,3.2c-0.5,0.1-1,0.1-1.4,0.1l-0.2,0l-0.1,0h-0.9l-1.9,0h-0.1l-0.1,0c-4.2-0.3-8.3-1.8-11.8-4.3
		C54.7,155.4,52.1,152,50.5,148z M38.3,101.7L38.3,101.7c-2.4-2-4.3-4.5-5.7-7.3l-1.7-5.1c-0.2-0.5-0.3-1.1-0.4-1.6
		c-0.5-3.5-0.3-7.2,0.9-10.6c1.3-4.1,3.8-7.7,7-10.5l0.1-0.1l0.1-0.1l2.1-1.6l0.1-0.1l0.1-0.1l0.1-0.1c0.4-0.2,0.8-0.5,1.2-0.7
		c3.7-2,7.2-3,10.6-3c2.9,0,5.3,0.7,7.4,1.3c2.2,0.7,5.1,2.3,8.4,4.8c5.1,3.8,9.5,8.4,13.2,13.5l4.3,5.9c0.6,0.8,0.4,2-0.4,2.6
		c-1.5,1.1-3.6,2.6-4.4,3.2c-1.2,1-0.6,2.3-0.2,3.5c0.4,1.2,0.8,2.5,1.2,3.7c0.3,1-0.2,2-1.2,2.3l-6.9,2.3c-5.8,1.9-11.8,3-17.9,3.1
		c-0.5,0-1,0-1.5,0c-3.9,0-6.8-0.4-8.9-1.1C42.1,104.7,39.2,102.5,38.3,101.7z M111.7,29.8c0.2,0.1,0.4,0.3,0.6,0.4l3.4,2.5
		c0.2,0.1,0.3,0.3,0.5,0.4c6.9,6.6,7,12.1,7.2,16.6c0.1,2.6-0.8,6.5-2.5,11.2c-2,5.5-4.8,10.7-8.3,15.5l-4.1,5.7
		c-0.6,0.8-1.8,1-2.6,0.4c-1.6-1.2-3.9-2.9-4.6-3.3c-1.4-0.6-2.6,0.7-3.7,1.4c-0.9,0.6-1.7,1.2-2.6,1.9c-0.8,0.7-2,0.5-2.7-0.3
		l-4.2-5.7c-3.5-4.8-6.3-10-8.3-15.5c-1.7-4.7-2.6-8.6-2.5-11.2c0.1-4.6,1.6-8.3,1.7-8.7c1.2-3,3-5.6,5.4-7.9
		c0.2-0.2,0.3-0.3,0.5-0.4l3.4-2.5c0.2-0.1,0.4-0.3,0.6-0.4c3.5-2,7.4-3,11.4-3h0C104.3,26.7,108.2,27.8,111.7,29.8z M96.1,100
		c0.6,0.2,0.8,0.9,0.5,1.4c-1.9,2.6-3.7,5.1-5.6,7.7c-0.4,0.6-1.4,0.5-1.6-0.3c-1.1-3.5-2.3-7.1-3.4-10.6c-0.2-0.7,0.4-1.4,1.2-1.2
		L96.1,100z M88.2,92l9-6.5c0.6-0.4,1.5,0,1.4,0.7c0,3.2,0,6.3,0,9.5c0,0.6-0.6,1.1-1.2,0.9c-3-1-6-1.9-9-2.9
		C87.7,93.4,87.6,92.4,88.2,92z M94,111c1.9-2.6,3.7-5.1,5.6-7.7c0.4-0.5,1.1-0.5,1.5,0c1.9,2.6,3.7,5.1,5.6,7.7
		c0.4,0.6,0,1.5-0.7,1.5H94.7C94,112.4,93.5,111.6,94,111z M102.3,95.7c0-3.2,0-6.3,0-9.5c0-0.7,0.8-1.2,1.5-0.7c3,2.2,6,4.4,9,6.5
		c0.6,0.4,0.5,1.4-0.3,1.6l-9,2.9C102.9,96.7,102.3,96.3,102.3,95.7z M104,101.4c-0.4-0.5-0.1-1.2,0.5-1.4c3-1,6-1.9,9-2.9
		c0.7-0.2,1.4,0.4,1.2,1.2c-1.1,3.5-2.3,7.1-3.4,10.6c-0.2,0.7-1.2,0.9-1.6,0.3C107.7,106.5,105.8,104,104,101.4z M152.6,141.8
		l-2,6.2c-2.7,8.5-10.5,14.2-19.4,14.2l-8.4,0c-6.6-1.8-9.4-5.4-11.7-8.4c-2.5-3.3-4.8-10.4-6.8-19.9c-0.1-0.4-0.1-0.9-0.1-1.3V117
		c0-0.1,0.1-0.2,0.2-0.2c2.3,0,4.6,0,6.9-0.1c1.3-0.1,1.8-0.8,2.2-2c0.6-1.8,1.7-5.2,2-6.1c0-0.1,0.1-0.1,0.2-0.1l13.6,4.4
		c0.4,0.1,0.8,0.3,1.1,0.5c9.1,5,15.5,9.7,18,13.2c2.6,3.8,3.6,7.7,3.7,8.1C152.6,137.1,152.8,139.5,152.6,141.8z"/>
</g>
</svg>
