<?xml version="1.0" encoding="utf-8"?>
<!-- Generator: Adobe Illustrator 23.0.3, SVG Export Plug-In . SVG Version: 6.00 Build 0)  -->
<svg version="1.2" baseProfile="tiny" id="Layer_1" xmlns="http://www.w3.org/2000/svg" xmlns:xlink="http://www.w3.org/1999/xlink"
	 x="0px" y="0px" viewBox="0 0 200 200" xml:space="preserve">
<g>
	<path fill="#010101" d="M175.6,89.7c-7.2-6.3-35.5-29.8-78.4-30.2c-38.2-0.3-64.7,17.9-73,24.1c-3,2.2-3,5.7-3,6.1
		c0,3.7,2.7,5.8,3,6.1c6.2,4.6,15.3,10.5,27.1,15.6c9.2,4,24.7,10.5,45.9,10.9c31,0.5,53-12.6,57.9-15.7
		C164.3,100.8,171.1,94.5,175.6,89.7z"/>
	<path fill="#010101" d="M39,114l-5.9-2.9c-1.7-0.8-3.7-0.2-4.5,1.5L21.9,126c-0.8,1.7-0.2,3.7,1.5,4.5l5.9,2.9
		c1.7,0.8,3.7,0.2,4.5-1.5l6.7-13.4C41.3,116.8,40.7,114.8,39,114z"/>
	<path fill="#010101" d="M69.8,126.4l-6.4-1.6c-1.8-0.4-3.6,0.6-4.1,2.4l-3.6,14.6c-0.4,1.8,0.6,3.6,2.4,4.1l6.4,1.6
		c1.8,0.4,3.6-0.6,4.1-2.4l3.6-14.6C72.7,128.7,71.6,126.9,69.8,126.4z"/>
	<path fill="#010101" d="M103.4,129.5h-6.6c-1.8,0-3.3,1.5-3.3,3.3v15c0,1.8,1.5,3.3,3.3,3.3h6.6c1.8,0,3.3-1.5,3.3-3.3v-15
		C106.8,131,105.3,129.5,103.4,129.5z"/>
	<path fill="#010101" d="M142.3,127.3c-0.4-1.8-2.3-2.9-4.1-2.4l-6.4,1.6c-1.8,0.4-2.9,2.3-2.4,4.1l3.6,14.6
		c0.4,1.8,2.3,2.9,4.1,2.4l6.4-1.6c1.8-0.4,2.9-2.3,2.4-4.1L142.3,127.3z"/>
	<path fill="#010101" d="M180,122.8l-9.4-11.8c-1.2-1.4-3.3-1.7-4.7-0.5l-5.2,4.1c-1.4,1.2-1.7,3.3-0.5,4.7l9.4,11.8
		c1.2,1.4,3.3,1.7,4.7,0.5l5.2-4.1C180.9,126.4,181.1,124.3,180,122.8z"/>
</g>
</svg>
