<?xml version="1.0" encoding="utf-8"?>
<!-- Generator: Adobe Illustrator 23.0.3, SVG Export Plug-In . SVG Version: 6.00 Build 0)  -->
<svg version="1.2" baseProfile="tiny" id="Layer_1" xmlns="http://www.w3.org/2000/svg" xmlns:xlink="http://www.w3.org/1999/xlink"
	 x="0px" y="0px" viewBox="0 0 200 200" xml:space="preserve">
<g>
	<ellipse transform="matrix(0.7071 -0.7071 0.7071 0.7071 -41.5334 99.7292)" fill="none" cx="99.6" cy="100" rx="32.3" ry="15.2"/>
	<path fill="#FFFFFF" d="M83.7,84c10.3-10.3,24-15,37.4-14.3c-1.9-6.7-5.4-13-10.7-18.2c-16.4-16.4-42.9-16.4-59.3,0
		s-16.4,42.9,0,59.3c5.3,5.3,11.6,8.8,18.2,10.7C68.6,108,73.4,94.3,83.7,84z"/>
	<path fill="#FFFFFF" d="M115.6,116c-10.3,10.3-24,15-37.4,14.3c1.9,6.7,5.4,13,10.7,18.2c16.4,16.4,42.9,16.4,59.3,0
		s16.4-42.9,0-59.3c-5.3-5.3-11.6-8.8-18.2-10.7C130.6,92,125.8,105.7,115.6,116z"/>
	<path fill="#010101" d="M153.4,84c-7-7-15.5-11.4-24.5-13.3c-1.9-9-6.3-17.5-13.3-24.5C96.4,27,65.1,27,45.9,46.2
		c-19.2,19.2-19.2,50.5,0,69.7c7,7,15.5,11.4,24.5,13.3c1.9,9,6.3,17.5,13.3,24.5c19.2,19.2,50.5,19.2,69.7,0S172.6,103.3,153.4,84z
		 M110.4,110.8c-9.2,9.2-21.6,13.2-33.6,12.1c-1.1-12,2.9-24.4,12.1-33.6c9.2-9.2,21.6-13.2,33.6-12.1
		C123.6,89.2,119.6,101.6,110.4,110.8z M51.1,110.8c-16.4-16.4-16.4-42.9,0-59.3s42.9-16.4,59.3,0c5.3,5.3,8.8,11.6,10.7,18.2
		C107.6,69,93.9,73.8,83.7,84c-10.3,10.3-15,24-14.3,37.4C62.6,119.6,56.3,116,51.1,110.8z M148.2,148.6
		c-16.4,16.4-42.9,16.4-59.3,0c-5.3-5.3-8.8-11.6-10.7-18.2c13.5,0.7,27.2-4.1,37.4-14.3s15-24,14.3-37.4c6.7,1.9,13,5.4,18.2,10.7
		C164.5,105.6,164.5,132.2,148.2,148.6z"/>
</g>
</svg>
