<?xml version="1.0" encoding="utf-8"?>
<!-- Generator: Adobe Illustrator 23.0.3, SVG Export Plug-In . SVG Version: 6.00 Build 0)  -->
<svg version="1.2" baseProfile="tiny" id="Layer_1" xmlns="http://www.w3.org/2000/svg" xmlns:xlink="http://www.w3.org/1999/xlink"
	 x="0px" y="0px" viewBox="0 0 200 200" xml:space="preserve">
<g>
	<path fill="none" d="M97.4,70.4c-0.7-0.6-1.8-0.6-2.5,0l-51.2,47.7l3.1-0.4c1-0.1,1.9,0.6,2,1.6l0,0c0.1,1-0.6,1.9-1.6,2l-4.7,0.6
		c-0.9,0.1-1.5-0.4-1.9-1l-1.4,1.3c-0.8,0.7-0.8,2,0,2.7l57.4,52l0.1-0.1c0.6-0.8,1.8-0.9,2.6-0.3h0c0.2,0.1,0.3,0.3,0.4,0.5
		l3.4-3.1c-0.5,0.1-1.1,0-1.6-0.3h0c-0.8-0.6-0.9-1.8-0.3-2.6l2.3-2.9c0.6-0.8,1.8-0.9,2.6-0.3v0c0.8,0.6,0.9,1.8,0.3,2.6l-1.5,2
		l52.4-47.4c0.8-0.7,0.8-2,0-2.8L97.4,70.4z M58.2,120.7l-3.6,0.1c-0.9,0-1.7-0.7-1.8-1.6l-0.2-1.9l0,0l0-0.1l0-0.1l0,0l-0.2-3.1
		c-0.1-1,0.7-1.9,1.7-1.9l0,0c1,0,1.8,0.7,1.9,1.7l0.1,1.5c0.1,1,0.9,1.7,1.8,1.7l0.2,0c1,0,1.8,0.8,1.8,1.8
		C60,119.9,59.2,120.7,58.2,120.7z M71,118.9c0,1-0.8,1.8-1.8,1.8h-3.7c-1,0-1.8-0.8-1.8-1.8v0c0-1,0.8-1.8,1.8-1.8h3.7
		C70.1,117.1,71,117.9,71,118.9L71,118.9z M82,118.9c0,1-0.8,1.8-1.8,1.8h-3.7c-1,0-1.8-0.8-1.8-1.8v0c0-1,0.8-1.8,1.8-1.8h3.7
		C81.2,117.1,82,117.9,82,118.9L82,118.9z M93.1,118.9c0,1-0.8,1.8-1.8,1.8h-3.7c-1,0-1.8-0.8-1.8-1.8v0c0-1,0.8-1.8,1.8-1.8h3.7
		C92.3,117.1,93.1,117.9,93.1,118.9L93.1,118.9z M105.1,118.9c0,1-0.8,1.8-1.8,1.8h-3.7c-1,0-1.8-0.8-1.8-1.8v0c0-1,0.8-1.8,1.8-1.8
		h3.7C104.2,117.1,105.1,117.9,105.1,118.9L105.1,118.9z M130.9,118.9c0-1,0.8-1.8,1.8-1.8h3.7c1,0,1.8,0.8,1.8,1.8v0
		c0,1-0.8,1.8-1.8,1.8h-3.7C131.7,120.7,130.9,119.9,130.9,118.9L130.9,118.9z M119.8,118.9c0-1,0.8-1.8,1.8-1.8h3.7
		c1,0,1.8,0.8,1.8,1.8v0c0,1-0.8,1.8-1.8,1.8h-3.7C120.6,120.7,119.8,119.9,119.8,118.9L119.8,118.9z M113.3,161.8l-2.3,2.9
		c-0.6,0.8-1.8,0.9-2.6,0.3h0c-0.8-0.6-0.9-1.8-0.3-2.6l2.3-2.9c0.6-0.8,1.8-0.9,2.6-0.3C113.8,159.9,113.9,161,113.3,161.8z
		 M110.6,120.7c-1,0-1.8-0.8-1.8-1.8v0c0-1,0.8-1.8,1.8-1.8h3.7c1,0,1.8,0.8,1.8,1.8v0c0,1-0.8,1.8-1.8,1.8H110.6z M120.1,153.1
		l-2.3,2.9c-0.6,0.8-1.8,0.9-2.6,0.3h0c-0.8-0.6-0.9-1.8-0.3-2.6l2.3-2.9c0.6-0.8,1.8-0.9,2.6-0.3h0
		C120.6,151.2,120.8,152.3,120.1,153.1z M127,144.4l-2.3,2.9c-0.6,0.8-1.8,0.9-2.6,0.3v0c-0.8-0.6-0.9-1.8-0.3-2.6l2.3-2.9
		c0.6-0.8,1.8-0.9,2.6-0.3C127.4,142.5,127.6,143.6,127,144.4z M133.8,135.7l-2.3,2.9c-0.6,0.8-1.8,0.9-2.6,0.3
		c-0.8-0.6-0.9-1.8-0.3-2.6l2.3-2.9c0.6-0.8,1.8-0.9,2.6-0.3v0C134.3,133.8,134.4,134.9,133.8,135.7z M140.6,127l-2.3,2.9
		c-0.6,0.8-1.8,0.9-2.6,0.3h0c-0.8-0.6-0.9-1.8-0.3-2.6l2.3-2.9c0.6-0.8,1.8-0.9,2.6-0.3l0,0C141.1,125.1,141.2,126.2,140.6,127z
		 M146.5,118.9c0,0.4-0.1,0.8-0.4,1.1l-0.9,1.2c-0.6,0.8-1.8,0.9-2.6,0.3c-0.8-0.6-0.9-1.8-0.3-2.6l0.2-0.2c0.3-0.3,0.4-0.7,0.4-1.1
		v-1.5c0-1,0.8-1.8,1.8-1.8h0c1,0,1.8,0.8,1.8,1.8V118.9z"/>
	<path fill="none" d="M64.3,39.3L98,60.8c0,0,0,0,0,0c0.2,0.1,0.3,0.2,0.4,0.3l24.4,21.1c1,0.9,2.5,0.4,3-0.8L140,38.4
		c0.4-1.2-0.5-2.4-1.8-2.4h-73C63.4,35.9,62.7,38.4,64.3,39.3z"/>
	<path fill="none" d="M43.7,108.2l8-7.4c0-0.1-0.1-0.3-0.1-0.4l-0.2-3.7c0-1,0.7-1.9,1.8-1.9l0,0c1,0,1.9,0.7,1.9,1.8l0,1l18.2-16.9
		c0.8-0.7-0.1-1.9-1-1.5L54.6,87l0.1,2.5c0,1-0.7,1.9-1.8,1.9l0,0c-1,0-1.9-0.7-1.9-1.7l-8.8,17.4C41.8,108,42.9,108.8,43.7,108.2z"
		/>
	<path fill="none" d="M147.5,50.6c-0.1-0.6-0.5-1-1-1.3c-0.1,0.9-0.9,1.7-1.8,1.7c-0.3,0-0.6-0.1-0.9-0.3l-12.5,37.8
		c-0.2,0.7,0,1.5,0.5,2l24.5,21.2c1.3,1.2,3.4,0,3-1.8L147.5,50.6z M146.5,96.6c0,1-0.8,1.8-1.8,1.8c-1,0-1.8-0.8-1.8-1.8v-4.2
		c0-1,0.8-1.8,1.8-1.8c1,0,1.8,0.8,1.8,1.8V96.6z M146.5,84.8c0,1-0.8,1.8-1.8,1.8c-1,0-1.8-0.8-1.8-1.8v-4.2c0-1,0.8-1.8,1.8-1.8
		c1,0,1.8,0.8,1.8,1.8V84.8z M146.5,72.9c0,1-0.8,1.8-1.8,1.8c-1,0-1.8-0.8-1.8-1.8v-4.2c0-1,0.8-1.8,1.8-1.8c1,0,1.8,0.8,1.8,1.8
		V72.9z M146.5,61c0,1-0.8,1.8-1.8,1.8c-1,0-1.8-0.8-1.8-1.8v-4.2c0-1,0.8-1.8,1.8-1.8c1,0,1.8,0.8,1.8,1.8V61z"/>
	<path fill="none" d="M54.2,78.9l30.5-13.7c1.3-0.6,1.5-2.4,0.2-3.2L54.4,42.6c-1.2-0.8-2.8,0.1-2.8,1.6v33.1
		C51.6,78.5,53,79.4,54.2,78.9z"/>
	<g>
		<path fill="#010101" d="M168.2,118.2l-16.4-82.2c-0.9-4.3-4.7-7.5-9.1-7.5H53.5c-5.1,0-9.3,4.2-9.3,9.3v47.6l-15.5,30.6
			c-1.9,3.7-1,8.3,2.1,11.1l60.8,55.1c0.9,0.8,1.8,1.4,2.9,1.8c3.4,1.3,7.1,0.5,9.7-1.8l61.2-55.4
			C167.7,124.8,168.8,121.4,168.2,118.2z M65.2,35.9h73c1.3,0,2.1,1.2,1.8,2.4l-14.2,43.1c-0.4,1.3-2,1.7-3,0.8L98.5,61.1
			c-0.1-0.1-0.3-0.2-0.4-0.3c0,0,0,0,0,0L64.3,39.3C62.7,38.4,63.4,35.9,65.2,35.9z M51.6,44.1c0-1.5,1.6-2.3,2.8-1.6L85,62
			c1.2,0.8,1.1,2.6-0.2,3.2L54.2,78.9c-1.2,0.5-2.6-0.3-2.6-1.7V44.1z M42.2,107.1L51,89.7c0.1,1,0.9,1.8,1.9,1.7l0,0
			c1,0,1.8-0.9,1.8-1.9L54.6,87L72.3,79c0.9-0.4,1.7,0.8,1,1.5L55.1,97.5l0-1c0-1-0.9-1.8-1.9-1.8l0,0c-1,0-1.8,0.9-1.8,1.9l0.2,3.7
			c0,0.1,0,0.3,0.1,0.4l-8,7.4C42.9,108.8,41.8,108,42.2,107.1z M157.3,125.1l-52.4,47.4l1.5-2c0.6-0.8,0.5-2-0.3-2.6v0
			c-0.8-0.6-2-0.5-2.6,0.3l-2.3,2.9c-0.6,0.8-0.5,2,0.3,2.6h0c0.5,0.4,1,0.5,1.6,0.3l-3.4,3.1c-0.1-0.2-0.3-0.4-0.4-0.5h0
			c-0.8-0.6-2-0.5-2.6,0.3l-0.1,0.1l-57.4-52c-0.8-0.7-0.8-2,0-2.7l1.4-1.3c0.3,0.7,1,1.1,1.9,1l4.7-0.6c1-0.1,1.7-1,1.6-2l0,0
			c-0.1-1-1-1.7-2-1.6l-3.1,0.4l51.2-47.7c0.7-0.6,1.8-0.7,2.5,0l59.9,51.9C158.1,123.1,158.1,124.4,157.3,125.1z M156.3,111.8
			l-24.5-21.2c-0.6-0.5-0.8-1.3-0.5-2l12.5-37.8c0.3,0.2,0.6,0.3,0.9,0.3c1,0,1.7-0.7,1.8-1.7c0.5,0.2,0.8,0.6,1,1.3l11.9,59.4
			C159.7,111.7,157.7,112.9,156.3,111.8z"/>
		<path fill="#010101" d="M144.7,78.7c-1,0-1.8,0.8-1.8,1.8v4.2c0,1,0.8,1.8,1.8,1.8c1,0,1.8-0.8,1.8-1.8v-4.2
			C146.5,79.5,145.7,78.7,144.7,78.7z"/>
		<path fill="#010101" d="M144.7,66.8c-1,0-1.8,0.8-1.8,1.8v4.2c0,1,0.8,1.8,1.8,1.8c1,0,1.8-0.8,1.8-1.8v-4.2
			C146.5,67.7,145.7,66.8,144.7,66.8z"/>
		<path fill="#010101" d="M144.7,55c-1,0-1.8,0.8-1.8,1.8V61c0,1,0.8,1.8,1.8,1.8c1,0,1.8-0.8,1.8-1.8v-4.2
			C146.5,55.8,145.7,55,144.7,55z"/>
		<path fill="#010101" d="M144.7,90.6c-1,0-1.8,0.8-1.8,1.8v4.2c0,1,0.8,1.8,1.8,1.8c1,0,1.8-0.8,1.8-1.8v-4.2
			C146.5,91.4,145.7,90.6,144.7,90.6z"/>
		<path fill="#010101" d="M144.7,114.3L144.7,114.3c-1,0-1.8,0.8-1.8,1.8v1.5c0,0.4-0.1,0.8-0.4,1.1l-0.2,0.2
			c-0.6,0.8-0.5,2,0.3,2.6c0.8,0.6,2,0.5,2.6-0.3l0.9-1.2c0.3-0.3,0.4-0.7,0.4-1.1v-2.8C146.5,115.1,145.7,114.3,144.7,114.3z"/>
		<path fill="#010101" d="M113,159.3c-0.8-0.6-2-0.5-2.6,0.3l-2.3,2.9c-0.6,0.8-0.5,2,0.3,2.6h0c0.8,0.6,2,0.5,2.6-0.3l2.3-2.9
			C113.9,161,113.8,159.9,113,159.3z"/>
		<path fill="#010101" d="M133.5,133.1L133.5,133.1c-0.8-0.6-2-0.5-2.6,0.3l-2.3,2.9c-0.6,0.8-0.5,2,0.3,2.6c0.8,0.6,2,0.5,2.6-0.3
			l2.3-2.9C134.4,134.9,134.3,133.8,133.5,133.1z"/>
		<path fill="#010101" d="M119.8,150.6L119.8,150.6c-0.8-0.6-2-0.5-2.6,0.3l-2.3,2.9c-0.6,0.8-0.5,2,0.3,2.6h0
			c0.8,0.6,2,0.5,2.6-0.3l2.3-2.9C120.8,152.3,120.6,151.2,119.8,150.6z"/>
		<path fill="#010101" d="M140.3,124.4L140.3,124.4c-0.8-0.6-2-0.5-2.6,0.3l-2.3,2.9c-0.6,0.8-0.5,2,0.3,2.6h0
			c0.8,0.6,2,0.5,2.6-0.3l2.3-2.9C141.2,126.2,141.1,125.1,140.3,124.4z"/>
		<path fill="#010101" d="M126.6,141.8c-0.8-0.6-2-0.5-2.6,0.3l-2.3,2.9c-0.6,0.8-0.5,2,0.3,2.6v0c0.8,0.6,2,0.5,2.6-0.3l2.3-2.9
			C127.6,143.6,127.4,142.5,126.6,141.8z"/>
		<path fill="#010101" d="M80.2,117.1h-3.7c-1,0-1.8,0.8-1.8,1.8v0c0,1,0.8,1.8,1.8,1.8h3.7c1,0,1.8-0.8,1.8-1.8v0
			C82,117.9,81.2,117.1,80.2,117.1z"/>
		<path fill="#010101" d="M69.1,117.1h-3.7c-1,0-1.8,0.8-1.8,1.8v0c0,1,0.8,1.8,1.8,1.8h3.7c1,0,1.8-0.8,1.8-1.8v0
			C71,117.9,70.1,117.1,69.1,117.1z"/>
		<path fill="#010101" d="M91.2,117.1h-3.7c-1,0-1.8,0.8-1.8,1.8v0c0,1,0.8,1.8,1.8,1.8h3.7c1,0,1.8-0.8,1.8-1.8v0
			C93.1,117.9,92.3,117.1,91.2,117.1z"/>
		<path fill="#010101" d="M132.7,120.7h3.7c1,0,1.8-0.8,1.8-1.8v0c0-1-0.8-1.8-1.8-1.8h-3.7c-1,0-1.8,0.8-1.8,1.8v0
			C130.9,119.9,131.7,120.7,132.7,120.7z"/>
		<path fill="#010101" d="M121.7,120.7h3.7c1,0,1.8-0.8,1.8-1.8v0c0-1-0.8-1.8-1.8-1.8h-3.7c-1,0-1.8,0.8-1.8,1.8v0
			C119.8,119.9,120.6,120.7,121.7,120.7z"/>
		<path fill="#010101" d="M103.2,117.1h-3.7c-1,0-1.8,0.8-1.8,1.8v0c0,1,0.8,1.8,1.8,1.8h3.7c1,0,1.8-0.8,1.8-1.8v0
			C105.1,117.9,104.2,117.1,103.2,117.1z"/>
		<path fill="#010101" d="M116.1,118.9L116.1,118.9c0-1-0.8-1.8-1.8-1.8h-3.7c-1,0-1.8,0.8-1.8,1.8v0c0,1,0.8,1.8,1.8,1.8h3.7
			C115.3,120.7,116.1,119.9,116.1,118.9z"/>
		<path fill="#010101" d="M58.1,117.1l-0.2,0c-1,0-1.8-0.7-1.8-1.7l-0.1-1.5c-0.1-1-0.9-1.7-1.9-1.7l0,0c-1,0-1.8,0.9-1.7,1.9
			l0.2,3.1l0,0l0,0.1l0,0.1l0,0l0.2,1.9c0.1,0.9,0.9,1.6,1.8,1.6l3.6-0.1c1,0,1.8-0.8,1.8-1.8C60,117.9,59.1,117,58.1,117.1z"/>
	</g>
</g>
</svg>
