<?xml version="1.0" encoding="utf-8"?>
<!-- Generator: Adobe Illustrator 23.0.3, SVG Export Plug-In . SVG Version: 6.00 Build 0)  -->
<svg version="1.2" baseProfile="tiny" id="Layer_1" xmlns="http://www.w3.org/2000/svg" xmlns:xlink="http://www.w3.org/1999/xlink"
	 x="0px" y="0px" viewBox="0 0 200 200" xml:space="preserve">
<g>
	<path fill="none" d="M110.6,49.3H88.3c-1.9,0-3.4,1.5-3.4,3.4v9.4l15.4,15.4h0.7l13-13V52.7C114,50.9,112.5,49.3,110.6,49.3z"/>
	<path fill="none" d="M117.9,28.7H81.1c-8,0-14.7,5.7-16.4,13.2l12.6,12.6v-1.7c0-6.1,5-11.1,11.1-11.1h22.3c6.1,0,11.1,5,11.1,11.1
		v4.1L134.6,44C133.8,35.4,126.6,28.7,117.9,28.7z"/>
	<path fill="none" d="M137.9,85.6l-1.5-0.2l-14.1,14.1l31.8,31.8v-26.7C154.1,95,147.3,87,137.9,85.6z"/>
	<path fill="none" d="M61.1,85.7c-9.2,1.5-15.9,9.5-15.9,19v28.7L79,99.5L64.3,84.8v0.4L61.1,85.7z"/>
	<path fill="none" d="M134.9,162.8c2.2,0,4.3-0.4,6.3-1.1l-40.5-40.5l-41,41c1.5,0.4,3.1,0.6,4.7,0.6H134.9z"/>
	<polygon fill="#FFFFFF" points="100.7,110.3 160.2,169.9 171,159.1 111.5,99.5 170.1,40.9 159.3,30.1 100.7,88.7 41.1,29.1 
		30.3,40 89.8,99.5 30.3,159.1 41.1,169.9 	"/>
	<path fill="#010101" d="M161.7,138.9v-34.4c0-12-7.7-22.2-18.8-25.6l38-38l-21.7-21.7L141,37.6c-3.3-9.6-12.4-16.5-23.1-16.5H81.1
		c-10.1,0-18.7,6.1-22.5,14.8L41.1,18.3L19.5,40l37.2,37.2v1.8c-11.3,3.3-19.1,13.7-19.1,25.8V141l-18.1,18.1l21.7,21.7l12.5-12.5
		c3.3,1.4,6.9,2.2,10.7,2.2h70.5c4.4,0,8.5-1.1,12.1-2.9l13.2,13.2l21.7-21.7L161.7,138.9z M137.9,85.6c9.4,1.4,16.2,9.4,16.2,19
		v26.7l-31.8-31.8l14.1-14.1L137.9,85.6z M81.1,28.7h36.7c8.7,0,15.9,6.7,16.7,15.2l-12.9,12.9v-4.1c0-6.1-5-11.1-11.1-11.1H88.3
		c-6.1,0-11.1,5-11.1,11.1v1.7L64.7,41.9C66.4,34.4,73.1,28.7,81.1,28.7z M100.3,77.5L84.9,62.1v-9.4c0-1.9,1.5-3.4,3.4-3.4h22.3
		c1.9,0,3.4,1.5,3.4,3.4v11.8l-13,13H100.3z M45.2,104.7c0-9.5,6.7-17.4,15.9-19l3.2-0.5v-0.4L79,99.5l-33.8,33.8V104.7z
		 M134.9,162.8H64.4c-1.6,0-3.2-0.2-4.7-0.6l41-41l40.5,40.5C139.2,162.4,137.1,162.8,134.9,162.8z M100.7,110.3l-59.5,59.5
		l-10.8-10.8l59.5-59.5L30.3,40l10.8-10.8l59.5,59.5l58.6-58.6l10.8,10.8l-58.6,58.6l59.5,59.5l-10.8,10.8L100.7,110.3z"/>
</g>
</svg>
