<?xml version="1.0" encoding="utf-8"?>
<!-- Generator: Adobe Illustrator 23.0.3, SVG Export Plug-In . SVG Version: 6.00 Build 0)  -->
<svg version="1.2" baseProfile="tiny" id="Layer_1" xmlns="http://www.w3.org/2000/svg" xmlns:xlink="http://www.w3.org/1999/xlink"
	 x="0px" y="0px" viewBox="0 0 200 200" xml:space="preserve">
<path fill="#010101" d="M138.9,87.5c0.5,0.2,1.2-0.5,1.6-1.5l1.2-3.5c0.3-1,0.4-1.8,0.2-1.9c-0.2-0.1-0.7-0.4-0.7-0.6
	s-0.8-0.4-1.8-0.4h-3.7c-1,0-1.8,0.8-1.8,1.8v3.2c0,1,0.7,1.9,1.6,2.1S138.3,87.4,138.9,87.5z"/>
<path fill="#010101" d="M133.7,51.8c0,1,0.8,1.8,1.8,1.8h3.7c1,0,1.8-0.8,1.8-1.8v-1.5c0-1,0-2.3,0-2.8c0-0.5-1-1.7-2-1.6l-3.7,0.4
	c-1,0.1-1.8,0.5-1.8,0.8c0,0.3,0.1,2.1,0.1,3.1V51.8z"/>
<path fill="#010101" d="M58.6,68.7c0,1,0.8,1.8,1.8,1.8h3.7c1,0,1.8-0.8,1.8-1.8v-3.8c0-1-0.8-1.8-1.8-1.8h-3.7
	c-1,0-1.8,0.8-1.8,1.8V68.7z"/>
<path fill="#010101" d="M132.4,30.4c-0.8-0.7-1.9-0.5-2.5,0.3l-2.1,3c-0.6,0.8-0.4,2,0.3,2.7l1.7,1.7c0.6,0.8,1.9,1,2.7,0.4l3.1-2
	c0.8-0.6,1-1.7,0.4-2.5L132.4,30.4z"/>
<path fill="#010101" d="M133.7,68.6c0,1,0.8,1.8,1.8,1.8h3.7c1,0,1.8-0.8,1.8-1.8v-3.8c0-1-0.8-1.8-1.8-1.8h-3.7
	c-1,0-1.8,0.8-1.8,1.8V68.6z"/>
<path fill="#010101" d="M69.6,30.7c-0.6-0.8-1.7-1-2.5-0.3l-3.6,3.7C63,34.9,63.1,36,64,36.6l3.1,2c0.8,0.6,2.1,0.4,2.7-0.4l1.6-1.7
	c0.8-0.7,0.9-1.9,0.3-2.7L69.6,30.7z"/>
<path fill="#010101" d="M103.5,26.8c0-1-0.8-1.8-1.8-1.8h-3.8c-1,0-1.8,0.8-1.8,1.8v3.7c0,1,0.8,1.8,1.8,1.8h3.8
	c1,0,1.8-0.8,1.8-1.8V26.8z"/>
<path fill="#010101" d="M58.6,47.6c0,0.5,0,1.7,0,2.7v1.6c0,1,0.8,1.8,1.8,1.8h3.7c1,0,1.8-0.8,1.8-1.8v-1.6c0-1,0-2.1,0-2.5
	c0-0.3-0.7-1.3-1.8-1.4l-3.7-0.4C59.6,46,58.6,47.1,58.6,47.6z"/>
<path fill="#010101" d="M119.1,32.4c0.4,0,0.9-0.7,1-1.7l0.5-3.7c0.1-1-0.2-1.9-0.8-1.9c-0.6-0.1-3-0.1-4-0.1h-1
	c-1,0-1.8,0.8-1.8,1.8v3.7c0,1,0.8,1.8,1.8,1.8h1C116.7,32.3,118.6,32.3,119.1,32.4z"/>
<path fill="#010101" d="M81.4,32.3c0.4,0,1.6,0,2.6,0h0.9c1,0,1.8-0.8,1.8-1.8v-3.7c0-1-0.8-1.8-1.8-1.8H84c-1,0-2.4,0-3,0
	c-0.6,0-2.2,1-2,2l0.5,3.6C79.7,31.7,80.9,32.4,81.4,32.3z"/>
<path fill="#010101" d="M58.6,80.3c0,0.2-0.2,0.4-0.4,0.5c-0.2,0.1-0.5,1-0.1,2l1.2,3.5c0.3,1,1,1.6,1.6,1.4
	c0.5-0.2,2.7-0.6,3.5-0.7c0.8-0.1,1.5-1.1,1.5-2.1v-3.1c0-1-0.8-1.8-1.8-1.8h-3.7C59.4,79.9,58.6,80.1,58.6,80.3z"/>
<path fill="#010101" d="M55.7,164.6c-0.4,0.9,0,2,0.9,2.3l4.5,1.3c1,0.2,1.9-0.5,2-1.5l0.4-3.7c0.1-1-0.6-2-1.6-2.2l-2.2-0.6
	c-0.9-0.4-2.1,0.1-2.5,1L55.7,164.6z"/>
<path fill="#010101" d="M47.5,137.4c0-1-0.8-1.8-1.8-1.8H42c-1,0-1.8,0.8-1.8,1.8v3.5c0,1,0.8,1.8,1.8,1.8h3.7c1,0,1.8-0.8,1.8-1.8
	V137.4z"/>
<path fill="#010101" d="M72.3,167c0,1,0.8,1.8,1.8,1.8h3.5c1,0,1.8-0.8,1.8-1.8v-3.7c0-1-0.8-1.8-1.8-1.8h-3.5c-1,0-1.8,0.8-1.8,1.8
	V167z"/>
<path fill="#010101" d="M47.5,107.3c0-1,0-2.1,0-2.5c0-0.4-0.7-1.3-1.8-1.5l-3.7-0.4c-1-0.1-1.9,0.2-1.9,0.7c0,0.5-0.1,2.6-0.1,3.6
	v1.2c0,1,0.8,1.8,1.8,1.8h3.7c1,0,1.8-0.8,1.8-1.8V107.3z"/>
<path fill="#010101" d="M44.4,91.4c-0.6,0.8-0.3,1.9,0.6,2.4l3.2,1.8c0.9,0.5,2.1,0.2,2.6-0.6l1.4-1.8c0.7-0.7,0.7-2,0-2.7l-2.5-2.7
	c-0.7-0.7-1.8-0.7-2.5,0L44.4,91.4z"/>
<path fill="#010101" d="M43.9,152.2c-0.9,0.4-1.3,1.4-0.9,2.3l2.5,4c0.6,0.8,1.7,0.9,2.5,0.3l2.8-2.4c0.8-0.7,0.9-1.9,0.3-2.7
	l-1.2-1.9c-0.5-0.9-1.6-1.3-2.5-0.9L43.9,152.2z"/>
<path fill="#010101" d="M47.5,121.2c0-1-0.8-1.8-1.8-1.8H42c-1,0-1.8,0.8-1.8,1.8v3.5c0,1,0.8,1.8,1.8,1.8h3.7c1,0,1.8-0.8,1.8-1.8
	V121.2z"/>
<path fill="#010101" d="M152.4,124.4c0,1,0.8,1.8,1.8,1.8h3.7c1,0,1.8-0.8,1.8-1.8v-3.5c0-1-0.8-1.8-1.8-1.8h-3.7
	c-1,0-1.8,0.8-1.8,1.8V124.4z"/>
<path fill="#010101" d="M120.8,167c0,1,0.8,1.8,1.8,1.8h3.5c1,0,1.8-0.8,1.8-1.8v-3.7c0-1-0.8-1.8-1.8-1.8h-3.5
	c-1,0-1.8,0.8-1.8,1.8V167z"/>
<path fill="#010101" d="M149.1,153.4c-0.6,0.8-0.4,2,0.3,2.7l2.8,2.4c0.8,0.7,1.9,0.5,2.5-0.3l2.4-4c0.5-0.9,0.1-2-0.9-2.3l-3.4-1.4
	c-0.9-0.4-2.1,0.1-2.5,1L149.1,153.4z"/>
<path fill="#010101" d="M138.3,160.9c-1,0.2-1.7,1.2-1.5,2.2l0.5,3.7c0.1,1,1.1,1.6,2.1,1.4l4.5-1.4c0.9-0.4,1.3-1.4,0.9-2.3
	l-1.6-3.3c-0.5-0.9-1.6-1.3-2.5-1L138.3,160.9z"/>
<path fill="#010101" d="M154.9,93.5c0.9-0.5,1.1-1.6,0.6-2.4l-2.9-3.6c-0.7-0.7-1.8-0.7-2.5,0l-2.5,2.7c-0.7,0.8-0.7,2,0,2.7
	l1.4,1.8c0.6,0.8,1.8,1.1,2.6,0.6L154.9,93.5z"/>
<path fill="#010101" d="M159.7,103.4c0-0.5-0.9-0.9-1.9-0.8l-3.7,0.4c-1,0.1-1.8,0.5-1.8,0.9c0,0.4,0.1,2.2,0.1,3.2v1
	c0,1,0.8,1.8,1.8,1.8h3.7c1,0,1.8-0.8,1.8-1.8v-1C159.8,106.2,159.8,104,159.7,103.4z"/>
<path fill="#010101" d="M152.4,140.6c0,1,0.8,1.8,1.8,1.8h3.7c1,0,1.8-0.8,1.8-1.8v-3.5c0-1-0.8-1.8-1.8-1.8h-3.7
	c-1,0-1.8,0.8-1.8,1.8V140.6z"/>
<path fill="#010101" d="M104.7,167c0,1,0.8,1.8,1.8,1.8h3.5c1,0,1.8-0.8,1.8-1.8v-3.7c0-1-0.8-1.8-1.8-1.8h-3.5
	c-1,0-1.8,0.8-1.8,1.8V167z"/>
<path fill="#010101" d="M88.5,167c0,1,0.8,1.8,1.8,1.8h3.5c1,0,1.8-0.8,1.8-1.8v-3.7c0-1-0.8-1.8-1.8-1.8h-3.5c-1,0-1.8,0.8-1.8,1.8
	V167z"/>
<path fill="#010101" d="M113.9,84.9c0,1,0.8,1.8,1.8,1.8h3.7c1,0,1.8-0.8,1.8-1.8v-3.7c0-1-0.8-1.8-1.8-1.8h-3.7
	c-1,0-1.8,0.8-1.8,1.8V84.9z"/>
<path fill="#010101" d="M103.9,81.2c0-1-0.8-1.8-1.8-1.8h-4.3c-1,0-1.8,0.8-1.8,1.8v3.7c0,1,0.8,1.8,1.8,1.8h4.3
	c1,0,1.8-0.8,1.8-1.8V81.2z"/>
<path fill="#010101" d="M85.8,81.2c0-1-0.8-1.8-1.8-1.8h-3.7c-1,0-1.8,0.8-1.8,1.8v3.7c0,1,0.8,1.8,1.8,1.8H84c1,0,1.8-0.8,1.8-1.8
	V81.2z"/>
<path fill="#010101" d="M121.2,64.8c0-1-0.8-1.8-1.8-1.8h-3.7c-1,0-1.8,0.8-1.8,1.8v3.6c0,1,0.8,1.8,1.8,1.8h3.7
	c1,0,1.8-0.8,1.8-1.8V64.8z"/>
<path fill="#010101" d="M101.6,52.2c1,0,1.8-0.8,1.8-1.8v-3.7c0-1-0.8-1.8-1.8-1.8H98c-1,0-1.8,0.8-1.8,1.8v3.7c0,1,0.8,1.8,1.8,1.8
	H101.6z"/>
<path fill="#010101" d="M113.2,53.7c0.3,0.6,1.4,0.8,2.4,0.6l3.6-0.9c1-0.2,1.4-1.2,0.9-2l-4.9-5.1c-0.9-0.5-1.8-0.2-2.1,0.8l-1,3.5
	C111.8,51.5,112.9,53.1,113.2,53.7z"/>
<path fill="#010101" d="M85.8,64.8c0-1-0.8-1.8-1.8-1.8h-3.7c-1,0-1.8,0.8-1.8,1.8v3.6c0,1,0.8,1.8,1.8,1.8H84c1,0,1.8-0.8,1.8-1.8
	V64.8z"/>
<path fill="#010101" d="M79.6,51.4c-0.5,0.9-0.1,1.8,0.9,2l3.6,0.8c1,0.2,2,0,2.4-0.6s1.4-2.2,1.2-3.1L86.6,47
	c-0.3-1-1.2-1.3-2.1-0.8L79.6,51.4z"/>
<path fill="#010101" d="M98.3,144.4l-0.3,4.3c-0.1,0.9,0.7,1.8,1.6,1.8c0,0,0,0,0,0c2.7,0,5.4-0.4,8-1.3c0.9-0.3,1.4-1.3,1-2.2
	l-1.7-4c-0.3-0.7-1-1.1-1.8-1l-5.5,0.9C99,143,98.4,143.7,98.3,144.4z"/>
<path fill="#010101" d="M91.1,107.9l-1.9-4c-0.4-0.9,0-1.9,0.9-2.3c3-1.2,6.3-1.9,9.6-1.9c0.6,0,1.1,0,1.7,0.1
	c1,0.1,1.7,0.9,1.5,1.9l-0.6,4.4c-0.1,0.7-0.7,1.3-1.4,1.4l-8.1,1.3C92.2,108.9,91.4,108.6,91.1,107.9z"/>
<path fill="#010101" d="M117.4,117.5l4-1.7c0.9-0.4,1.3-1.4,0.8-2.3c-1.2-2.4-2.9-4.6-4.8-6.5c-0.7-0.7-1.8-0.6-2.4,0.1l-2.8,3.3
	c-0.5,0.6-0.5,1.4-0.1,2.1l3.3,4.5C115.9,117.6,116.7,117.8,117.4,117.5z"/>
<path fill="#010101" d="M83.2,115.1l-3.7-2.2c-0.8-0.5-1.9-0.2-2.4,0.7c-1.2,2.4-2.1,5-2.5,7.7c-0.1,1,0.6,1.8,1.5,1.9l4.3,0.4
	c0.8,0.1,1.5-0.4,1.7-1.1l1.7-5.3C84.1,116.3,83.8,115.5,83.2,115.1z"/>
<path fill="#010101" d="M82.6,134.1c-1.1,0.5-2.7,1.3-3.9,1.9c-0.9,0.4-1.2,1.5-0.7,2.4c1.4,2.3,3.2,4.4,5.2,6.1
	c0.7,0.6,1.9,0.5,2.4-0.3l2.6-3.5c0.5-0.6,0.4-1.5-0.1-2.1l-3.6-4.2C84.1,133.9,83.3,133.8,82.6,134.1z"/>
<path fill="#010101" d="M115.4,136.3l3.5,2.5c0.8,0.6,1.9,0.3,2.4-0.5c1.4-2.3,2.4-4.9,3-7.5c0.2-0.9-0.4-1.9-1.4-2l-4.3-0.7
	c-0.8-0.1-1.5,0.3-1.8,1l-2.1,5.2C114.6,135,114.8,135.9,115.4,136.3z"/>
</svg>
