<?xml version="1.0" encoding="utf-8"?>
<!-- Generator: Adobe Illustrator 23.0.3, SVG Export Plug-In . SVG Version: 6.00 Build 0)  -->
<svg version="1.2" baseProfile="tiny" id="Layer_1" xmlns="http://www.w3.org/2000/svg" xmlns:xlink="http://www.w3.org/1999/xlink"
	 x="0px" y="0px" viewBox="0 0 200 200" xml:space="preserve">
<g>
	<path fill="#FFFFFF" d="M91,110.1c0,0-3-3.2-3.4-8C87,95.6,93.6,88,104.3,83.9c-0.6,2.3-1.1,5.7,0.4,9.1c1.3,3.1,3.2,3.4,4.6,6.8
		c0.5,1.2,2.1,5.3,0,9.1c-2,3.6-6.1,4.4-6.8,4.6v8.2c9.7,0.1,24.1-0.8,39.9-8.2c8.6-4.1,15.1-8.8,19.4-12.5
		c-4.1-3.6-10.1-8.3-18.2-12.5c-4.1-2.1-22.7-11.4-47.8-10.3c-30.2,1.4-51,16.9-58.1,22.8c9.9,6.8,30.8,19.1,59.2,20.5v-8
		C95.4,113.1,93,112.2,91,110.1z"/>
	<path fill="#010101" d="M143.4,80.4c-23.9-11.4-45.6-9.9-54.7-9.1c-30.4,2.6-51.8,16.9-60.9,23.9c-0.3,0.2-2.9,2.2-2.9,5.7
		s2.6,5.5,2.9,5.7c12.6,10,24.4,15.3,32.4,18.2c7.8,2.8,51.3,17.5,90-5.7c10.2-6.1,17.3-13.2,21.6-18.2
		C166.2,95.1,156.8,86.9,143.4,80.4z M142.2,113.5c-15.7,7.4-30.2,8.3-39.9,8.2v-8.2c0.8-0.1,4.8-1,6.8-4.6c2.1-3.8,0.5-7.9,0-9.1
		c-1.4-3.4-3.2-3.7-4.6-6.8c-1.4-3.4-1-6.9-0.4-9.1C93.6,88,87,95.6,87.6,102.1c0.4,4.8,3.4,8,3.4,8c2.1,2.2,4.5,3.1,5.7,3.4v8
		c-28.4-1.4-49.3-13.7-59.2-20.5c7.1-5.9,27.8-21.4,58.1-22.8c25.2-1.1,43.8,8.1,47.8,10.3c8.1,4.2,14.1,8.9,18.2,12.5
		C157.3,104.6,150.8,109.4,142.2,113.5z"/>
</g>
</svg>
