<?xml version="1.0" encoding="utf-8"?>
<!-- Generator: Adobe Illustrator 23.0.3, SVG Export Plug-In . SVG Version: 6.00 Build 0)  -->
<svg version="1.2" baseProfile="tiny" id="Layer_1" xmlns="http://www.w3.org/2000/svg" xmlns:xlink="http://www.w3.org/1999/xlink"
	 x="0px" y="0px" viewBox="0 0 200 200" xml:space="preserve">
<g>
	<path fill="none" d="M114.3,54.5c0-1.8-1.5-3.3-3.3-3.3H89.5c-1.8,0-3.3,1.5-3.3,3.3v23.9h28V54.5z"/>
	<path fill="#FFFFFF" d="M137.3,86.1l-3.1-0.5V47.5c0-8.9-7.3-16.2-16.2-16.2H82.5c-8.9,0-16.2,7.3-16.2,16.2v38.2l-3.1,0.5
		c-8.9,1.5-15.3,9.2-15.3,18.3V142c0,10.2,8.3,18.5,18.5,18.5h67.9c10.2,0,18.5-8.3,18.5-18.5v-37.6
		C152.8,95.2,146.3,87.5,137.3,86.1z M104.9,152.4c-1.6,1.4-3.8,2-6.5,2c-2.6,0-4.8-0.7-6.4-2c-1.6-1.4-2.5-3.3-2.5-6
		c0-2.6,0.8-4.5,2.5-5.9c1.6-1.4,3.8-2,6.4-2c2.7,0,4.9,0.7,6.5,2c1.6,1.4,2.5,3.3,2.5,5.9C107.3,149.1,106.5,151.1,104.9,152.4z
		 M117,115.5c-0.6,1.4-1.4,2.7-2.4,3.7c-1,1.1-2.2,2-3.5,2.7c-1.3,0.7-2.7,1.3-4.2,1.8c-1.9,0.6-3.4,1.1-4.6,1.6
		c-1.2,0.5-1.9,1.1-2.2,1.9c0,0.3,0.2,0.6,0.7,1.1c0.4,0.5,1,1,1.6,1.6c0,0,0.1,0.1,0.1,0.1c1.2,1,0.6,3-0.9,3.2
		c-1.6,0.3-3.2,0.5-3.6,0.6c-0.6,0.1-1,0.2-1.3,0.2c-0.3,0-0.7,0-1-0.1c-2.2-1-4-2.5-5.3-4.4c-1.4-2-2.1-4-2.1-6.1
		c0-2.5,0.8-4.4,2.5-5.9c1.7-1.5,4-2.6,6.9-3.5c2.3-0.7,4.1-1.3,5.2-1.8c1.1-0.4,1.8-1.4,1.9-2.6c0-1.6-0.8-2.9-2.5-3.8
		c-1.7-0.9-3.9-1.3-6.8-1.3c-1.5,0-3.2,0.2-5,0.5c-0.8,0.2-1.5,0.3-2.2,0.5c-1.2,0.3-2.4-0.6-2.3-1.9l0.4-8.3c0-0.8,0.5-1.4,1.3-1.7
		c1-0.3,2-0.6,3.2-0.8c1.7-0.3,3.6-0.5,5.9-0.5c3.1,0,6,0.5,8.6,1.4c2.6,0.9,4.9,2.2,6.7,3.8c1.9,1.6,3.3,3.5,4.4,5.7
		c1,2.2,1.6,4.6,1.6,7.1C117.8,112.4,117.5,114.1,117,115.5z M121.6,85.7H78.9V54.5c0-5.9,4.8-10.6,10.6-10.6H111
		c5.9,0,10.6,4.8,10.6,10.6V85.7z"/>
	<g>
		<path fill="#010101" d="M141.5,79.5v-32c0-13-10.6-23.6-23.6-23.6H82.5C69.6,24,59,34.5,59,47.5v32.2
			c-10.8,3.2-18.4,13.2-18.4,24.8V142c0,14.3,11.6,25.9,25.9,25.9h67.9c14.3,0,25.9-11.6,25.9-25.9v-37.6
			C160.2,92.6,152.5,82.6,141.5,79.5z M152.8,142c0,10.2-8.3,18.5-18.5,18.5H66.4c-10.2,0-18.5-8.3-18.5-18.5v-37.4
			c0-9.1,6.5-16.8,15.3-18.3l3.1-0.5V47.5c0-8.9,7.3-16.2,16.2-16.2h35.4c8.9,0,16.2,7.3,16.2,16.2v38.1l3.1,0.5
			c9,1.4,15.6,9,15.6,18.3V142z"/>
		<path fill="#010101" d="M111,43.8H89.5c-5.9,0-10.6,4.8-10.6,10.6v31.2h42.8V54.5C121.6,48.6,116.8,43.8,111,43.8z M114.3,78.4
			h-28V54.5c0-1.8,1.5-3.3,3.3-3.3H111c1.8,0,3.3,1.5,3.3,3.3V78.4z"/>
		<path fill="#010101" d="M104.9,140.5c-1.6-1.4-3.8-2-6.5-2c-2.6,0-4.8,0.7-6.4,2c-1.6,1.4-2.5,3.3-2.5,5.9c0,2.6,0.8,4.6,2.5,6
			c1.6,1.4,3.8,2,6.4,2c2.7,0,4.9-0.7,6.5-2c1.6-1.4,2.5-3.3,2.5-6C107.3,143.8,106.5,141.9,104.9,140.5z"/>
		<path fill="#010101" d="M111.9,97.8c-1.9-1.6-4.1-2.9-6.7-3.8c-2.6-0.9-5.5-1.4-8.6-1.4c-2.2,0-4.2,0.2-5.9,0.5
			c-1.2,0.2-2.3,0.5-3.2,0.8c-0.7,0.2-1.2,0.9-1.3,1.7l-0.4,8.3c-0.1,1.2,1.1,2.2,2.3,1.9c0.7-0.2,1.4-0.4,2.2-0.5
			c1.9-0.4,3.5-0.5,5-0.5c2.9,0,5.2,0.4,6.8,1.3c1.7,0.9,2.5,2.1,2.5,3.8c0,1.1-0.8,2.1-1.9,2.6c-1.2,0.5-2.9,1.1-5.2,1.8
			c-3,0.8-5.3,2-6.9,3.5c-1.7,1.5-2.5,3.5-2.5,5.9c0,2,0.7,4,2.1,6.1c1.3,1.9,3.1,3.3,5.3,4.4c0.3,0.1,0.6,0.2,1,0.1
			c0.3,0,0.8-0.1,1.3-0.2c0.4-0.1,2-0.3,3.6-0.6c1.5-0.2,2.1-2.2,0.9-3.2c0,0-0.1-0.1-0.1-0.1c-0.6-0.5-1.1-1.1-1.6-1.6
			c-0.4-0.5-0.7-0.9-0.7-1.1c0.3-0.8,1.1-1.5,2.2-1.9c1.2-0.5,2.7-1,4.6-1.6c1.5-0.5,2.9-1.1,4.2-1.8c1.3-0.7,2.5-1.6,3.5-2.7
			c1-1.1,1.8-2.3,2.4-3.7c0.6-1.4,0.8-3.1,0.8-5c0-2.5-0.5-4.9-1.6-7.1C115.2,101.3,113.7,99.4,111.9,97.8z"/>
	</g>
</g>
</svg>
